<?xml version="1.0" encoding="UTF-8" standalone="no"?>
<!DOCTYPE svg PUBLIC "-//W3C//DTD SVG 1.1//EN" "http://www.w3.org/Graphics/SVG/1.1/DTD/svg11.dtd">
<svg xmlns="http://www.w3.org/2000/svg" version="1.1" viewBox="0.00 0.00 1024.00 1024.00">
<g stroke-width="2.00" fill="none" stroke-linecap="butt">
<path stroke="#f9edde" vector-effect="non-scaling-stroke" d="
  M 477.95 176.70
  Q 477.87 177.95 476.74 177.92
  Q 476.23 177.90 475.85 177.54
  Q 472.42 174.26 470.78 173.68
  Q 460.59 170.05 449.15 167.12
  C 445.86 166.28 443.29 164.43 440.09 163.47
  Q 439.51 163.30 438.99 163.59
  C 433.82 166.42 429.26 170.24 424.87 174.21
  Q 413.72 184.29 407.28 196.34
  Q 397.79 214.10 394.74 234.59
  C 392.93 246.75 394.13 264.25 408.05 269.26
  A 1.45 1.45 0.0 0 1 408.96 271.05
  Q 406.01 280.89 403.00 290.00
  Q 402.73 290.83 401.88 290.74"
/>
<path stroke="#dec8af" vector-effect="non-scaling-stroke" d="
  M 401.88 290.74
  Q 393.87 291.70 385.83 295.37
  Q 376.34 299.71 369.67 304.09
  Q 353.97 314.40 340.01 330.25
  Q 330.15 341.45 328.40 357.13
  Q 321.59 418.43 324.99 480.76
  Q 325.85 496.44 327.73 510.57
  Q 329.08 520.77 335.19 526.55
  Q 343.24 534.18 355.65 531.31"
/>
<path stroke="#939192" vector-effect="non-scaling-stroke" d="
  M 355.65 531.31
  Q 359.72 534.44 365.49 533.71
  Q 379.79 531.89 394.06 529.97
  C 400.96 529.04 407.36 528.78 414.17 528.58"
/>
<path stroke="#f9edde" vector-effect="non-scaling-stroke" d="
  M 414.17 528.58
  Q 415.60 537.89 416.89 547.33
  C 418.63 560.18 420.67 572.05 422.96 584.28
  A 1.53 1.53 0.0 0 0 424.77 585.49
  L 436.59 583.10"
/>
<path stroke="#a69d99" vector-effect="non-scaling-stroke" d="
  M 436.59 583.10
  L 438.52 602.67
  A 1.24 1.22 66.9 0 1 438.10 603.74
  C 430.23 610.58 426.62 622.26 426.13 632.57
  Q 424.13 674.49 422.03 735.78
  Q 421.69 745.61 426.96 754.83
  Q 427.23 755.32 426.76 755.62
  C 421.06 759.27 416.49 765.07 416.09 772.07
  Q 413.95 808.75 412.23 845.38
  C 411.70 856.60 411.77 868.11 414.28 879.26
  Q 416.05 887.15 421.21 891.00
  Q 421.77 891.42 421.71 892.12
  Q 420.79 903.63 421.25 916.81
  Q 421.30 918.28 422.03 919.46
  Q 422.77 920.66 425.11 923.05"
/>
<path stroke="#939192" vector-effect="non-scaling-stroke" d="
  M 425.11 923.05
  C 423.27 926.89 420.34 930.89 419.78 936.21
  Q 419.39 939.96 419.77 943.88
  Q 419.83 944.45 419.57 944.96
  Q 418.41 947.26 418.43 950.16"
/>
<path stroke="#f3efee" vector-effect="non-scaling-stroke" d="
  M 418.43 950.16
  Q 415.72 947.86 412.27 948.16
  Q 399.04 949.31 377.76 950.12
  C 354.00 951.03 330.83 952.20 308.50 955.97
  Q 305.62 956.45 303.18 957.71
  A 0.69 0.68 46.5 0 0 303.15 958.91
  Q 306.03 960.58 309.50 961.17
  Q 319.00 962.75 329.63 963.68
  Q 354.30 965.82 392.60 967.61
  C 402.89 968.09 412.24 968.19 422.37 968.68
  Q 432.60 969.17 442.34 969.26
  Q 529.92 970.05 594.53 969.81
  Q 621.99 969.71 679.95 968.16
  C 690.78 967.87 701.57 967.19 712.91 966.90
  Q 735.69 966.34 767.05 964.10
  Q 782.64 962.98 797.86 960.88
  Q 801.51 960.38 804.72 959.00
  A 0.86 0.86 0.0 0 0 804.71 957.41
  Q 801.86 956.22 798.70 955.69
  C 783.15 953.10 767.24 952.00 750.50 950.84
  Q 741.25 950.21 730.58 949.86
  C 714.31 949.34 697.93 948.39 681.75 948.10
  Q 652.56 947.56 623.37 946.83
  Q 621.70 946.79 618.10 947.34"
/>
<path stroke="#939192" vector-effect="non-scaling-stroke" d="
  M 618.10 947.34
  Q 611.51 942.58 602.98 940.99
  Q 590.20 938.63 577.03 938.47
  Q 572.30 938.41 569.54 937.47
  C 562.10 934.91 554.78 930.35 547.82 926.41
  Q 544.74 924.67 541.91 922.60
  Q 541.88 922.57 541.87 922.53
  Q 541.84 922.37 541.93 922.26
  Q 542.08 922.10 542.29 922.18
  Q 549.39 924.86 556.47 927.51
  Q 558.73 928.36 561.06 928.70
  A 0.92 0.92 0.0 0 0 562.11 927.82
  C 562.39 919.44 548.11 919.31 542.80 918.82
  Q 540.58 918.61 538.14 917.99
  Q 535.74 917.39 533.50 916.82"
/>
<path stroke="#a69d99" vector-effect="non-scaling-stroke" d="
  M 533.50 916.82
  L 533.40 896.78
  Q 533.40 896.17 534.01 896.10
  Q 546.43 894.71 551.54 882.42
  Q 552.91 879.10 552.88 873.76
  Q 552.77 859.12 553.12 845.09
  Q 553.39 834.50 555.81 821.16
  C 557.03 814.40 557.98 807.05 558.25 800.15
  Q 558.91 783.44 558.59 754.66
  Q 558.56 751.44 559.85 749.57
  C 561.83 746.71 564.36 744.16 565.61 740.90
  Q 567.37 736.31 567.98 731.48
  Q 578.13 651.16 582.74 577.53
  Q 583.03 572.87 582.97 568.07"
/>
<path stroke="#f9edde" vector-effect="non-scaling-stroke" d="
  M 582.97 568.07
  Q 595.15 567.84 607.23 566.70
  Q 608.03 566.62 609.43 565.70"
/>
<path stroke="#939192" vector-effect="non-scaling-stroke" d="
  M 609.43 565.70
  Q 610.53 566.13 611.82 565.80
  A 0.89 0.89 0.0 0 0 612.49 564.89
  L 610.63 531.77"
/>
<path stroke="#f9edde" vector-effect="non-scaling-stroke" d="
  M 610.63 531.77
  Q 619.63 521.49 620.32 507.95
  Q 620.61 502.24 619.79 496.57
  C 618.51 487.82 614.47 479.42 611.47 470.98
  Q 610.87 469.31 611.49 468.43
  C 615.78 462.22 612.33 454.71 610.17 448.36
  C 608.07 442.20 609.86 434.85 609.45 430.02
  Q 609.08 425.76 608.30 421.72
  C 606.35 411.67 607.65 400.22 602.90 390.97
  Q 599.02 383.39 594.69 375.60
  Q 592.80 372.20 593.96 368.75
  C 595.61 363.82 596.16 359.33 594.91 354.12
  Q 591.42 339.53 583.11 326.49"
/>
<path stroke="#939192" vector-effect="non-scaling-stroke" d="
  M 583.11 326.49
  Q 582.54 324.57 582.16 320.51
  Q 576.85 263.86 576.75 208.70
  Q 576.74 208.20 576.34 207.89
  Q 574.97 206.84 572.62 206.88"
/>
<path stroke="#f9edde" vector-effect="non-scaling-stroke" d="
  M 572.62 206.88
  Q 551.64 202.71 531.25 195.69"
/>
<path stroke="#fde7d3" vector-effect="non-scaling-stroke" d="
  M 531.25 195.69
  Q 531.99 192.24 533.07 190.69
  A 1.80 1.78 -73.7 0 1 534.42 189.94
  C 545.37 189.35 557.79 184.34 560.19 172.69
  Q 563.33 157.50 564.36 152.96
  Q 564.62 151.82 564.70 150.35"
/>
<path stroke="#939192" vector-effect="non-scaling-stroke" d="
  M 564.70 150.35
  Q 565.24 150.32 565.19 149.73
  Q 565.16 149.43 564.88 149.14
  Q 561.02 145.08 556.82 141.39
  A 0.48 0.45 -20.5 0 0 556.53 141.27
  Q 556.16 141.25 556.12 141.46"
/>
<path stroke="#fde7d3" vector-effect="non-scaling-stroke" d="
  M 556.12 141.46
  Q 555.86 141.63 555.64 141.63
  Q 555.09 141.65 555.11 141.10
  L 555.46 129.67"
/>
<path stroke="#939192" vector-effect="non-scaling-stroke" d="
  M 555.46 129.67
  C 571.17 128.28 582.36 117.53 576.84 100.94
  C 576.41 99.65 575.25 98.25 574.36 97.16
  A 0.52 0.51 -26.2 0 1 574.65 96.33
  C 577.29 95.75 577.69 93.47 576.92 91.28
  Q 574.52 84.43 568.32 80.84
  Q 564.88 78.84 561.38 77.87
  Q 561.32 77.86 561.33 77.80
  L 561.40 77.54
  Q 561.46 77.30 561.70 77.34
  Q 567.66 78.49 573.70 80.78
  Q 575.53 81.48 574.27 79.98
  C 571.69 76.94 566.78 75.76 563.02 74.75
  Q 562.80 74.70 562.74 74.49
  Q 562.60 74.06 563.05 74.00
  Q 564.34 73.82 564.26 72.55
  Q 564.24 72.09 563.78 72.00
  Q 555.92 70.33 548.42 71.91
  C 546.48 72.32 545.49 70.76 543.86 70.15
  C 538.24 68.07 531.47 68.96 525.50 69.64
  C 524.95 69.70 524.44 69.48 523.90 69.47
  Q 523.35 69.45 523.89 69.36
  Q 527.35 68.76 530.77 67.56
  A 0.74 0.73 74.6 0 0 531.24 66.72
  L 531.19 66.47
  Q 531.12 66.14 530.80 66.22
  C 526.57 67.19 519.06 68.54 514.97 66.50
  Q 503.44 60.74 490.82 62.13
  Q 470.10 64.43 457.43 83.49
  Q 457.31 83.66 457.13 83.57
  L 456.90 83.45
  Q 456.82 83.41 456.86 83.32
  Q 459.42 77.34 463.19 72.01
  Q 463.41 71.70 463.30 71.34
  Q 463.17 70.92 462.56 70.86
  A 0.71 0.70 25.7 0 0 461.98 71.06
  Q 459.69 73.34 457.84 77.46
  Q 455.50 82.66 453.68 87.84
  Q 453.50 88.36 453.06 88.67
  Q 452.52 89.04 451.89 89.21
  Q 451.39 89.35 451.10 89.78
  C 449.62 92.03 450.27 94.45 450.69 96.91
  Q 450.79 97.54 450.31 97.95
  C 445.69 101.92 441.64 105.69 437.96 110.92
  A 1.92 1.90 57.8 0 0 437.64 112.36
  Q 437.72 112.82 438.10 113.10
  Q 438.52 113.42 438.81 112.96
  Q 441.17 109.12 444.07 106.18
  Q 445.37 104.86 444.43 106.46
  Q 436.01 120.92 437.13 137.82
  Q 437.22 139.18 438.23 139.86
  Q 438.76 140.21 438.97 139.61
  Q 439.67 137.61 440.09 135.55
  Q 440.12 135.41 440.25 135.36
  Q 440.30 135.34 440.35 135.36
  Q 440.64 135.44 440.65 135.75
  Q 440.70 139.64 441.26 143.99
  A 1.31 1.30 88.4 0 0 442.47 145.14
  Q 444.08 145.23 444.84 143.20
  Q 445.73 140.84 446.09 143.33
  Q 447.31 151.88 453.27 155.93
  C 456.65 158.21 460.68 158.50 464.06 160.80
  C 469.57 164.55 474.56 171.08 477.95 176.70"
/>
<path stroke="#947c69" vector-effect="non-scaling-stroke" d="
  M 555.46 129.67
  L 555.48 117.64
  A 0.53 0.52 71.4 0 0 554.64 117.22
  Q 550.08 120.74 546.03 122.02
  Q 541.82 123.36 534.20 123.18
  Q 533.26 123.16 533.53 122.26
  Q 533.76 121.49 534.47 121.12
  Q 536.05 120.29 537.67 119.67
  C 541.42 118.23 542.31 112.45 542.26 108.70
  Q 542.25 108.01 541.55 108.02
  L 536.80 108.11
  A 1.40 1.39 8.5 0 0 535.50 109.06
  C 533.00 116.64 529.54 121.93 521.45 124.72
  Q 515.30 126.85 509.49 126.92
  Q 508.42 126.94 508.34 128.00
  Q 507.78 135.41 507.45 142.00
  Q 507.37 143.67 506.99 145.45
  A 0.84 0.83 -58.1 0 1 505.51 145.80
  Q 499.84 138.48 491.22 133.81
  C 484.71 130.27 476.25 129.08 474.69 138.42
  C 473.77 143.96 477.67 149.82 482.23 152.98
  C 487.13 156.38 495.63 161.68 501.24 161.91
  A 0.38 0.38 0.0 0 1 501.56 162.47
  L 501.40 162.78
  A 0.97 0.97 0.0 0 1 500.33 163.28
  L 496.54 162.44
  A 0.89 0.88 18.8 0 0 495.54 162.93
  L 485.55 184.26
  A 1.08 1.07 -75.7 0 1 484.50 184.89
  Q 482.54 184.78 480.82 183.66
  Q 480.37 183.37 480.26 182.85
  Q 479.90 181.11 479.34 180.21"
/>
<path stroke="#908274" vector-effect="non-scaling-stroke" d="
  M 479.34 180.21
  L 477.95 176.70"
/>
<path stroke="#908274" vector-effect="non-scaling-stroke" d="
  M 545.46 243.43
  Q 547.29 247.89 547.38 249.37
  Q 548.55 267.11 550.46 286.25
  Q 551.38 295.47 553.51 325.50
  Q 554.12 334.09 555.27 342.75
  C 559.70 375.97 564.98 407.58 570.02 441.36
  Q 571.52 451.40 572.69 461.12
  Q 577.95 504.59 581.29 549.23
  A 0.25 0.24 -3.3 0 1 581.05 549.49
  Q 535.23 550.17 488.89 556.04
  Q 488.38 556.10 488.27 555.60
  L 480.21 517.67
  A 0.54 0.54 0.0 0 1 480.77 517.02
  C 491.41 517.64 503.25 517.73 513.50 514.99
  Q 514.90 514.61 516.05 513.78
  Q 516.92 513.14 515.86 513.33
  C 503.05 515.61 489.87 516.35 477.51 515.16
  Q 473.79 514.80 466.40 513.44
  Q 461.36 512.52 455.18 511.85
  C 450.01 511.29 446.20 507.38 442.69 503.78
  Q 430.50 491.30 420.17 479.88
  Q 402.18 460.00 388.09 437.83
  C 384.12 431.59 380.17 424.17 379.15 417.10
  Q 378.85 415.01 378.57 412.85"
/>
<path stroke="#dab891" vector-effect="non-scaling-stroke" d="
  M 378.57 412.85
  Q 378.72 404.54 379.87 396.06
  Q 387.11 343.02 402.47 291.76
  Q 402.61 291.29 401.88 290.74"
/>
<path stroke="#947c69" vector-effect="non-scaling-stroke" d="
  M 556.12 141.46
  Q 556.45 142.59 557.33 143.42
  Q 561.02 146.92 564.70 150.35"
/>
<path stroke="#f9d7b5" vector-effect="non-scaling-stroke" d="
  M 531.25 195.69
  Q 530.00 197.62 529.60 200.92
  Q 529.52 201.51 530.11 201.62
  Q 535.14 202.61 539.50 203.98
  C 541.52 204.61 543.15 205.91 543.32 208.20
  C 543.51 210.66 543.76 213.38 541.75 215.20
  Q 541.33 215.58 541.29 216.14
  Q 541.03 220.17 541.73 223.40
  Q 542.46 226.79 542.89 230.22
  Q 543.47 234.79 544.50 239.65
  Q 544.55 239.92 544.79 240.05
  Q 544.95 240.14 545.11 240.16
  Q 545.34 240.17 545.43 239.97
  Q 545.54 239.73 545.75 239.52"
/>
<path stroke="#947c69" vector-effect="non-scaling-stroke" d="
  M 545.75 239.52
  Q 546.32 241.51 545.46 243.43"
/>
<path stroke="#f9d7b5" vector-effect="non-scaling-stroke" d="
  M 545.46 243.43
  Q 541.23 235.87 535.80 229.44
  Q 528.03 220.25 519.22 213.86
  C 510.15 207.28 498.05 200.16 487.32 193.84
  Q 480.24 189.67 472.33 185.87
  Q 458.06 179.03 447.70 171.96
  Q 443.72 169.24 440.39 165.03
  A 0.29 0.28 61.2 0 1 440.52 164.58
  L 440.78 164.49
  A 0.85 0.84 64.0 0 1 441.75 164.83
  Q 442.92 166.60 444.35 167.25
  Q 453.50 171.45 465.22 174.01
  Q 471.25 175.33 479.34 180.21"
/>
<path stroke="#755d45" vector-effect="non-scaling-stroke" d="
  M 355.65 531.31
  Q 352.02 524.14 350.86 516.53
  C 347.57 494.82 346.65 471.79 346.58 449.51
  C 346.49 422.72 347.08 396.80 348.60 370.93
  Q 349.94 348.21 349.05 324.25
  A 0.75 0.74 -7.0 0 1 349.64 323.50
  L 349.91 323.45
  A 0.32 0.31 83.2 0 1 350.29 323.75
  Q 351.12 347.84 350.32 365.32
  Q 349.20 389.86 348.39 413.96
  A 0.91 0.91 0.0 0 0 349.37 414.90
  L 378.57 412.85"
/>
<path stroke="#908274" vector-effect="non-scaling-stroke" d="
  M 572.62 206.88
  C 572.83 235.08 574.51 263.39 576.38 291.53
  Q 578.56 324.17 585.20 368.45
  Q 590.61 404.56 596.24 440.01
  Q 597.80 449.89 599.09 459.43
  C 603.96 495.71 608.03 529.42 609.43 565.70"
/>
<path stroke="#a38e7b" vector-effect="non-scaling-stroke" d="
  M 582.97 568.07
  Q 509.10 566.95 436.59 583.10"
/>
<path stroke="#908274" vector-effect="non-scaling-stroke" d="
  M 414.17 528.58
  L 407.51 468.24
  Q 407.38 467.09 408.11 467.99
  Q 412.03 472.86 416.57 478.25
  C 423.56 486.56 431.39 494.45 438.77 502.43
  Q 444.40 508.51 448.10 510.96
  C 452.90 514.12 458.60 514.14 463.97 514.49
  A 1.22 1.22 0.0 0 1 465.08 515.44
  Q 470.24 538.65 475.15 563.56
  Q 476.08 568.28 479.34 568.20
  C 482.29 568.13 488.30 567.76 489.53 564.26
  C 490.17 562.45 488.96 560.37 488.77 558.47
  Q 488.70 557.85 489.32 557.77
  Q 534.64 552.05 581.09 551.10
  A 0.48 0.48 0.0 0 1 581.58 551.55
  L 582.33 563.83
  Q 582.37 564.54 583.09 564.57
  L 585.98 564.70
  Q 586.61 564.73 586.57 564.10
  Q 584.32 520.45 577.48 468.88
  C 571.83 426.31 562.35 383.48 556.92 340.44
  Q 555.76 331.26 554.97 320.69
  Q 552.74 290.82 550.18 261.69
  C 548.89 246.97 546.54 232.09 545.06 217.13
  Q 544.99 216.38 544.25 216.23
  L 543.97 216.17
  Q 543.37 216.05 543.43 216.66
  L 545.75 239.52"
/>
<path stroke="#3d322f" vector-effect="non-scaling-stroke" d="
  M 533.50 916.82
  L 498.43 924.98
  A 0.75 0.75 0.0 0 1 497.51 924.36
  C 497.00 921.14 494.14 919.74 491.18 919.49
  Q 485.68 919.03 480.56 919.33
  A 0.82 0.82 0.0 0 1 479.69 918.49
  L 480.25 895.16
  A 1.41 1.41 0.0 0 1 481.47 893.79
  C 493.44 892.13 500.85 882.64 502.25 871.17
  Q 503.19 863.47 503.11 854.46
  Q 502.95 836.48 502.87 818.60
  Q 502.82 806.48 504.52 796.56
  C 505.92 788.33 509.64 778.82 512.44 770.30
  C 515.02 762.45 513.08 755.16 514.21 747.25
  Q 514.76 743.39 515.84 740.03
  C 530.21 695.61 540.39 651.18 547.76 605.02
  Q 549.59 593.55 550.68 582.72
  Q 550.70 582.54 550.52 582.51
  L 550.26 582.48
  A 0.30 0.30 0.0 0 0 549.93 582.74
  Q 547.02 605.44 545.97 611.73
  Q 538.23 657.90 525.28 705.22
  Q 520.68 722.02 515.21 738.35
  C 513.92 742.22 512.80 746.48 512.84 750.62
  C 512.90 756.88 513.95 763.02 511.87 769.20
  Q 508.67 778.70 505.80 788.41
  C 502.70 798.87 501.76 808.49 501.81 820.01
  Q 501.92 843.77 501.93 864.24
  C 501.94 879.00 496.42 891.14 480.35 893.42
  A 1.21 1.20 87.2 0 0 479.32 894.57
  L 478.38 919.09
  A 0.81 0.81 0.0 0 1 477.72 919.86
  Q 472.63 920.78 467.21 921.70
  C 461.13 922.74 452.16 924.95 444.23 925.64
  Q 434.27 926.50 425.11 923.05"
/>
<path stroke="#908274" vector-effect="non-scaling-stroke" d="
  M 583.11 326.49
  Q 585.42 349.96 588.02 366.50
  Q 593.62 402.16 599.16 437.82
  Q 606.31 483.92 610.63 531.77"
/>
<path stroke="#8a8484" vector-effect="non-scaling-stroke" d="
  M 618.10 947.34
  Q 619.13 949.75 617.34 952.60"
/>
<path stroke="#939192" vector-effect="non-scaling-stroke" d="
  M 617.34 952.60
  Q 602.48 951.54 591.00 953.21
  C 579.11 954.93 567.32 957.13 555.26 957.12
  Q 553.75 957.12 552.27 956.97
  C 549.72 956.71 548.88 954.00 546.20 953.82
  Q 538.15 953.26 533.18 954.02
  Q 505.69 958.17 477.13 956.38
  Q 452.07 954.81 418.54 953.38"
/>
<path stroke="#8a8484" vector-effect="non-scaling-stroke" d="
  M 418.54 953.38
  L 418.43 950.16"
/>
<path stroke="#f3efee" vector-effect="non-scaling-stroke" d="
  M 418.54 953.38
  L 418.49 964.19
  Q 418.49 964.96 419.26 964.99
  C 432.10 965.51 445.68 965.41 458.18 965.87
  C 474.04 966.44 489.75 966.59 505.82 967.43
  Q 522.80 968.32 542.44 968.31
  Q 547.35 968.31 551.07 965.83
  Q 551.49 965.55 551.99 965.56
  Q 580.02 965.89 608.05 966.19
  Q 612.41 966.24 616.69 965.84
  Q 617.37 965.78 617.37 965.10
  L 617.34 952.60"
/>
<path stroke="#939192" vector-effect="non-scaling-stroke" d="
  M 573.0360 95.9470
  A 1.86 0.72 26.4 0 0 571.6901 94.4751
  A 1.86 0.72 26.4 0 0 569.7040 94.2930
  A 1.86 0.72 26.4 0 0 571.0499 95.7649
  A 1.86 0.72 26.4 0 0 573.0360 95.9470"
/>
<path stroke="#947c69" vector-effect="non-scaling-stroke" d="
  M 533.13 129.86
  L 548.94 127.92
  A 0.48 0.48 0.0 0 0 549.35 127.38
  L 549.32 127.09
  A 2.80 1.92 -7.0 0 0 546.30 125.52
  L 535.11 126.90
  A 2.80 1.92 -7.0 0 0 532.56 129.14
  L 532.60 129.44
  A 0.48 0.48 0.0 0 0 533.13 129.86"
/>
<path stroke="#947c69" vector-effect="non-scaling-stroke" d="
  M 543.2708 138.7389
  A 2.82 1.93 75.4 0 0 544.4277 135.5235
  A 2.82 1.93 75.4 0 0 541.8492 133.2811
  A 2.82 1.93 75.4 0 0 540.6923 136.4965
  A 2.82 1.93 75.4 0 0 543.2708 138.7389"
/>
<path stroke="#947c69" vector-effect="non-scaling-stroke" d="
  M 484.46 142.36
  C 485.13 137.97 490.81 141.05 492.49 142.58
  Q 493.12 143.15 494.01 143.27
  Q 494.30 143.31 494.56 143.17
  A 0.54 0.53 53.3 0 0 494.68 142.32
  C 492.53 140.16 487.23 137.10 484.35 139.24
  C 482.21 140.83 482.14 143.70 484.19 145.49
  C 488.46 149.23 494.18 152.19 499.37 154.65
  Q 500.24 155.06 500.72 154.23
  L 500.91 153.90
  A 0.56 0.55 27.6 0 0 500.66 153.12
  Q 492.75 149.42 485.47 144.64
  A 2.31 2.30 21.3 0 1 484.46 142.36"
/>
<path stroke="#947c69" vector-effect="non-scaling-stroke" d="
  M 558.27 164.64
  A 0.70 0.70 0.0 0 0 557.57 163.94
  L 550.99 163.94
  A 0.70 0.70 0.0 0 0 550.29 164.64
  L 550.29 164.70
  A 0.70 0.70 0.0 0 0 550.99 165.40
  L 557.57 165.40
  A 0.70 0.70 0.0 0 0 558.27 164.70
  L 558.27 164.64"
/>
<path stroke="#908274" vector-effect="non-scaling-stroke" d="
  M 490.51 231.70
  L 541.92 259.78
  Q 542.43 260.06 542.42 259.47
  L 542.40 258.81
  A 1.11 1.08 -76.5 0 0 541.85 257.89
  Q 516.72 243.96 491.51 230.40
  C 490.35 229.78 488.05 228.59 487.63 227.25
  Q 487.42 226.58 487.89 225.98
  Q 489.18 224.29 487.05 224.34
  Q 463.29 224.93 444.82 233.05
  C 429.15 239.93 419.83 249.54 411.76 264.07
  A 0.36 0.36 0.0 0 0 412.04 264.61
  L 412.34 264.64
  Q 413.08 264.71 413.46 264.06
  Q 417.05 257.97 420.98 252.79
  C 429.66 241.34 444.22 234.01 458.24 229.92
  Q 459.06 229.68 459.53 230.39
  C 463.09 235.72 465.86 241.64 468.59 247.52
  Q 475.28 261.96 477.65 276.38
  Q 482.85 308.08 481.70 341.57
  C 481.56 345.90 483.67 350.05 483.82 354.48
  Q 483.91 357.23 483.73 360.04
  C 482.72 376.39 479.62 390.94 476.10 408.04
  C 475.53 410.80 474.48 412.75 472.23 414.50
  Q 467.42 418.24 462.31 418.91
  C 453.20 420.10 443.63 419.87 434.47 420.23
  Q 427.19 420.52 421.82 423.18
  C 417.16 425.49 412.60 428.64 407.28 429.11
  Q 399.12 429.84 391.62 426.63
  Q 391.11 426.42 391.03 426.96
  L 390.99 427.26
  A 0.96 0.94 -75.6 0 0 391.57 428.26
  C 397.70 430.72 405.38 432.02 411.77 430.00
  C 415.06 428.96 418.13 427.06 421.18 425.37
  C 425.62 422.91 429.91 421.88 435.03 421.70
  Q 446.55 421.28 457.83 420.95
  C 465.52 420.73 472.06 418.44 476.59 412.15
  A 0.47 0.47 0.0 0 1 477.33 412.12
  Q 480.39 415.64 484.40 418.42
  Q 486.67 419.99 484.47 421.66
  Q 481.51 423.91 479.16 426.94
  Q 478.64 427.60 478.90 428.40
  L 479.02 428.76
  Q 479.18 429.26 479.53 428.87
  L 481.96 426.19
  Q 482.56 425.53 482.77 426.40
  Q 483.78 430.46 484.78 434.76
  C 486.09 440.40 483.74 444.51 480.02 448.21
  Q 468.58 459.59 457.71 470.51
  A 0.67 0.67 0.0 0 0 457.80 471.54
  L 458.00 471.69
  Q 458.30 471.90 458.56 471.65
  Q 468.42 462.07 478.55 451.91
  C 482.67 447.77 486.82 444.01 486.56 437.76
  A 0.51 0.51 0.0 0 1 487.25 437.26
  Q 494.72 440.15 502.58 445.84
  C 507.99 449.75 511.98 455.03 512.58 461.51
  Q 513.27 468.85 512.76 477.34
  Q 511.81 493.61 510.11 509.48
  A 0.40 0.40 0.0 0 0 510.59 509.91
  L 510.87 509.84
  A 1.04 1.03 -3.1 0 0 511.68 508.94
  Q 514.37 484.36 514.39 465.38
  Q 514.40 453.54 505.51 446.30
  Q 497.11 439.46 488.17 435.96
  Q 486.80 435.43 486.41 434.02
  Q 485.23 429.82 484.10 425.34
  A 1.19 1.19 0.0 0 1 484.50 424.12
  Q 486.39 422.60 487.59 420.67
  Q 487.84 420.28 487.68 419.85
  C 486.72 417.17 481.03 413.61 478.44 411.78
  A 0.98 0.98 0.0 0 1 478.16 410.48
  Q 482.32 403.56 485.39 395.24
  A 1.14 1.13 -80.2 0 1 486.44 394.49
  Q 492.00 394.35 497.35 392.43
  Q 499.63 391.62 499.50 389.17
  C 499.29 385.16 498.87 378.19 495.19 376.27
  A 1.60 1.60 0.0 0 1 494.33 374.82
  C 494.54 362.28 495.51 349.82 499.04 337.94
  C 500.08 334.46 502.43 331.66 503.02 328.05
  Q 503.77 323.47 504.08 319.07
  C 506.15 289.21 502.03 259.78 489.92 232.24
  Q 489.43 231.11 490.51 231.70"
/>
<path stroke="#908274" vector-effect="non-scaling-stroke" d="
  M 433.4627 253.6891
  A 0.69 0.69 0.0 0 0 432.7631 253.0088
  L 432.5231 253.0121
  A 0.69 0.69 0.0 0 0 431.8428 253.7117
  L 431.9573 261.9109
  A 0.69 0.69 0.0 0 0 432.6569 262.5912
  L 432.8969 262.5879
  A 0.69 0.69 0.0 0 0 433.5772 261.8883
  L 433.4627 253.6891"
/>
<path stroke="#908274" vector-effect="non-scaling-stroke" d="
  M 480.39 338.30
  C 477.41 321.51 474.66 305.33 471.25 288.55
  Q 469.32 279.03 467.77 269.89
  Q 467.76 269.79 467.68 269.75
  Q 466.29 268.99 466.20 270.85
  A 2.26 2.07 -52.0 0 0 466.24 271.36
  Q 472.69 304.77 477.86 332.98
  Q 478.46 336.24 480.01 338.46
  Q 480.56 339.27 480.39 338.30"
/>
<path stroke="#908274" vector-effect="non-scaling-stroke" d="
  M 428.73 283.08
  L 429.02 282.95
  Q 429.61 282.67 429.84 282.06
  Q 431.18 278.60 431.59 275.01
  A 0.36 0.36 0.0 0 0 431.11 274.63
  L 430.86 274.72
  A 1.41 1.41 0.0 0 0 429.98 275.68
  L 428.20 282.64
  A 0.38 0.38 0.0 0 0 428.73 283.08"
/>
<path stroke="#908274" vector-effect="non-scaling-stroke" d="
  M 401.44 330.12
  A 0.40 0.40 0.0 0 0 401.51 330.67
  L 401.72 330.83
  Q 402.37 331.33 402.88 330.69
  Q 408.79 323.18 416.53 311.66
  Q 423.04 301.99 426.06 292.69
  Q 426.18 292.32 425.83 292.18
  L 425.50 292.04
  A 0.52 0.51 20.9 0 0 424.81 292.34
  Q 421.52 301.36 416.44 309.09
  Q 410.35 318.35 401.44 330.12"
/>
<path stroke="#908274" vector-effect="non-scaling-stroke" d="
  M 471.72 326.20
  C 462.61 320.18 454.96 312.26 446.44 306.21
  C 441.13 302.43 433.52 302.55 427.05 303.07
  Q 426.34 303.12 426.36 303.83
  L 426.37 304.17
  A 0.45 0.44 88.1 0 0 426.83 304.61
  Q 432.07 304.37 436.94 304.62
  C 443.91 304.99 447.01 308.37 453.52 313.91
  Q 459.83 319.28 466.30 324.44
  Q 468.70 326.36 471.49 327.40
  Q 471.65 327.46 471.81 327.42
  Q 472.33 327.29 471.96 326.48
  A 0.73 0.68 6.3 0 0 471.72 326.20"
/>
<path stroke="#908274" vector-effect="non-scaling-stroke" d="
  M 564.0457 224.8482
  A 3.67 3.19 94.6 0 0 567.5197 221.4458
  A 3.67 3.19 94.6 0 0 564.6343 217.5318
  A 3.67 3.19 94.6 0 0 561.1603 220.9342
  A 3.67 3.19 94.6 0 0 564.0457 224.8482"
/>
<path stroke="#908274" vector-effect="non-scaling-stroke" d="
  M 562.5884 331.5165
  A 3.16 2.93 103.2 0 0 566.1626 329.1091
  A 3.16 2.93 103.2 0 0 564.0316 325.3635
  A 3.16 2.93 103.2 0 0 560.4574 327.7709
  A 3.16 2.93 103.2 0 0 562.5884 331.5165"
/>
<path stroke="#908274" vector-effect="non-scaling-stroke" d="
  M 580.4543 433.1107
  A 3.25 2.96 104.9 0 0 584.1505 430.7311
  A 3.25 2.96 104.9 0 0 582.1257 426.8293
  A 3.25 2.96 104.9 0 0 578.4295 429.2089
  A 3.25 2.96 104.9 0 0 580.4543 433.1107"
/>
<path stroke="#908274" vector-effect="non-scaling-stroke" d="
  M 590.0690 538.9261
  A 3.29 3.08 127.9 0 0 594.5204 538.2220
  A 3.29 3.08 127.9 0 0 594.1110 533.7339
  A 3.29 3.08 127.9 0 0 589.6596 534.4380
  A 3.29 3.08 127.9 0 0 590.0690 538.9261"
/>
<path stroke="#88694c" vector-effect="non-scaling-stroke" d="
  M 462.4461 612.3623
  A 0.26 0.26 0.0 0 0 462.2137 612.0773
  L 462.0943 612.0652
  A 0.26 0.26 0.0 0 0 461.8094 612.2976
  L 457.0739 658.9177
  A 0.26 0.26 0.0 0 0 457.3063 659.2027
  L 457.4257 659.2148
  A 0.26 0.26 0.0 0 0 457.7106 658.9824
  L 462.4461 612.3623"
/>
<path stroke="#88694c" vector-effect="non-scaling-stroke" d="
  M 452.67 749.54
  C 452.68 731.73 453.42 713.71 454.62 695.65
  Q 454.63 695.50 454.49 695.45
  L 454.18 695.35
  Q 453.92 695.27 453.90 695.55
  Q 451.67 722.59 452.08 749.64
  Q 452.08 749.68 452.12 749.69
  L 452.40 749.75
  Q 452.67 749.82 452.67 749.54"
/>
<path stroke="#88694c" vector-effect="non-scaling-stroke" d="
  M 444.8620 777.4448
  A 0.30 0.30 0.0 0 0 444.5831 777.1251
  L 444.3835 777.1115
  A 0.30 0.30 0.0 0 0 444.0638 777.3904
  L 440.6780 827.0552
  A 0.30 0.30 0.0 0 0 440.9569 827.3749
  L 441.1565 827.3885
  A 0.30 0.30 0.0 0 0 441.4762 827.1096
  L 444.8620 777.4448"
/>
<path stroke="#88694c" vector-effect="non-scaling-stroke" d="
  M 442.10 890.93
  C 441.29 890.20 440.58 889.61 440.12 888.58
  Q 438.16 884.19 437.42 878.79
  Q 435.81 867.03 436.41 854.55
  Q 436.42 854.38 436.25 854.37
  L 435.99 854.35
  Q 435.75 854.33 435.73 854.58
  Q 434.55 869.93 437.86 884.60
  C 438.26 886.34 439.88 891.11 441.88 891.40
  Q 442.76 891.53 442.10 890.93"
/>
<path stroke="#88694c" vector-effect="non-scaling-stroke" d="
  M 442.9319 896.6849
  A 0.30 0.30 0.0 0 0 442.6346 896.3822
  L 442.2346 896.3788
  A 0.30 0.30 0.0 0 0 441.9320 896.6761
  L 441.7081 922.3351
  A 0.30 0.30 0.0 0 0 442.0054 922.6378
  L 442.4054 922.6412
  A 0.30 0.30 0.0 0 0 442.7080 922.3439
  L 442.9319 896.6849"
/>
<path stroke="#939192" vector-effect="non-scaling-stroke" d="
  M 558.14 926.18
  Q 562.11 927.99 559.16 924.78
  Q 556.54 921.92 552.61 921.38
  Q 547.92 920.74 542.51 920.60
  Q 541.76 920.58 542.35 921.05
  Q 543.15 921.68 544.21 921.88
  Q 551.91 923.34 558.14 926.18"
/>
<path stroke="#3d322f" vector-effect="non-scaling-stroke" d="
  M 486.56 927.36
  C 483.89 926.17 481.79 924.82 479.49 923.20
  Q 479.32 923.08 479.11 923.10
  Q 478.97 923.11 478.86 923.20
  Q 478.52 923.50 478.87 923.78
  Q 483.04 927.20 486.60 931.13
  A 0.79 0.79 0.0 0 0 487.88 930.97
  Q 489.20 928.54 486.56 927.36"
/>
<path stroke="#3d322f" vector-effect="non-scaling-stroke" d="
  M 470.97 932.23
  A 1.54 1.54 0.0 0 0 469.70 929.86
  Q 468.15 929.83 467.16 930.64
  A 1.65 1.64 -49.1 0 0 467.35 933.32
  Q 469.47 934.60 470.97 932.23"
/>
<path stroke="#755d45" vector-effect="non-scaling-stroke" d="
  M 543.33 938.20
  Q 542.32 939.78 543.96 940.71
  Q 545.20 941.41 546.91 941.09
  Q 547.33 941.02 547.61 940.69
  C 549.72 938.20 546.07 933.95 543.33 938.20"
/>
<path stroke="#8a8484" vector-effect="non-scaling-stroke" d="
  M 480.7101 939.2377
  A 2.83 2.44 -38.0 0 0 476.9778 939.0573
  A 2.83 2.44 -38.0 0 0 476.2499 942.7223
  A 2.83 2.44 -38.0 0 0 479.9822 942.9027
  A 2.83 2.44 -38.0 0 0 480.7101 939.2377"
/>
</g>
<path fill="#fcfcfc" d="
  M 1024.00 0.00
  L 1024.00 1024.00
  L 0.00 1024.00
  L 0.00 0.00
  L 1024.00 0.00
  Z
  M 477.95 176.70
  Q 477.87 177.95 476.74 177.92
  Q 476.23 177.90 475.85 177.54
  Q 472.42 174.26 470.78 173.68
  Q 460.59 170.05 449.15 167.12
  C 445.86 166.28 443.29 164.43 440.09 163.47
  Q 439.51 163.30 438.99 163.59
  C 433.82 166.42 429.26 170.24 424.87 174.21
  Q 413.72 184.29 407.28 196.34
  Q 397.79 214.10 394.74 234.59
  C 392.93 246.75 394.13 264.25 408.05 269.26
  A 1.45 1.45 0.0 0 1 408.96 271.05
  Q 406.01 280.89 403.00 290.00
  Q 402.73 290.83 401.88 290.74
  Q 393.87 291.70 385.83 295.37
  Q 376.34 299.71 369.67 304.09
  Q 353.97 314.40 340.01 330.25
  Q 330.15 341.45 328.40 357.13
  Q 321.59 418.43 324.99 480.76
  Q 325.85 496.44 327.73 510.57
  Q 329.08 520.77 335.19 526.55
  Q 343.24 534.18 355.65 531.31
  Q 359.72 534.44 365.49 533.71
  Q 379.79 531.89 394.06 529.97
  C 400.96 529.04 407.36 528.78 414.17 528.58
  Q 415.60 537.89 416.89 547.33
  C 418.63 560.18 420.67 572.05 422.96 584.28
  A 1.53 1.53 0.0 0 0 424.77 585.49
  L 436.59 583.10
  L 438.52 602.67
  A 1.24 1.22 66.9 0 1 438.10 603.74
  C 430.23 610.58 426.62 622.26 426.13 632.57
  Q 424.13 674.49 422.03 735.78
  Q 421.69 745.61 426.96 754.83
  Q 427.23 755.32 426.76 755.62
  C 421.06 759.27 416.49 765.07 416.09 772.07
  Q 413.95 808.75 412.23 845.38
  C 411.70 856.60 411.77 868.11 414.28 879.26
  Q 416.05 887.15 421.21 891.00
  Q 421.77 891.42 421.71 892.12
  Q 420.79 903.63 421.25 916.81
  Q 421.30 918.28 422.03 919.46
  Q 422.77 920.66 425.11 923.05
  C 423.27 926.89 420.34 930.89 419.78 936.21
  Q 419.39 939.96 419.77 943.88
  Q 419.83 944.45 419.57 944.96
  Q 418.41 947.26 418.43 950.16
  Q 415.72 947.86 412.27 948.16
  Q 399.04 949.31 377.76 950.12
  C 354.00 951.03 330.83 952.20 308.50 955.97
  Q 305.62 956.45 303.18 957.71
  A 0.69 0.68 46.5 0 0 303.15 958.91
  Q 306.03 960.58 309.50 961.17
  Q 319.00 962.75 329.63 963.68
  Q 354.30 965.82 392.60 967.61
  C 402.89 968.09 412.24 968.19 422.37 968.68
  Q 432.60 969.17 442.34 969.26
  Q 529.92 970.05 594.53 969.81
  Q 621.99 969.71 679.95 968.16
  C 690.78 967.87 701.57 967.19 712.91 966.90
  Q 735.69 966.34 767.05 964.10
  Q 782.64 962.98 797.86 960.88
  Q 801.51 960.38 804.72 959.00
  A 0.86 0.86 0.0 0 0 804.71 957.41
  Q 801.86 956.22 798.70 955.69
  C 783.15 953.10 767.24 952.00 750.50 950.84
  Q 741.25 950.21 730.58 949.86
  C 714.31 949.34 697.93 948.39 681.75 948.10
  Q 652.56 947.56 623.37 946.83
  Q 621.70 946.79 618.10 947.34
  Q 611.51 942.58 602.98 940.99
  Q 590.20 938.63 577.03 938.47
  Q 572.30 938.41 569.54 937.47
  C 562.10 934.91 554.78 930.35 547.82 926.41
  Q 544.74 924.67 541.91 922.60
  Q 541.88 922.57 541.87 922.53
  Q 541.84 922.37 541.93 922.26
  Q 542.08 922.10 542.29 922.18
  Q 549.39 924.86 556.47 927.51
  Q 558.73 928.36 561.06 928.70
  A 0.92 0.92 0.0 0 0 562.11 927.82
  C 562.39 919.44 548.11 919.31 542.80 918.82
  Q 540.58 918.61 538.14 917.99
  Q 535.74 917.39 533.50 916.82
  L 533.40 896.78
  Q 533.40 896.17 534.01 896.10
  Q 546.43 894.71 551.54 882.42
  Q 552.91 879.10 552.88 873.76
  Q 552.77 859.12 553.12 845.09
  Q 553.39 834.50 555.81 821.16
  C 557.03 814.40 557.98 807.05 558.25 800.15
  Q 558.91 783.44 558.59 754.66
  Q 558.56 751.44 559.85 749.57
  C 561.83 746.71 564.36 744.16 565.61 740.90
  Q 567.37 736.31 567.98 731.48
  Q 578.13 651.16 582.74 577.53
  Q 583.03 572.87 582.97 568.07
  Q 595.15 567.84 607.23 566.70
  Q 608.03 566.62 609.43 565.70
  Q 610.53 566.13 611.82 565.80
  A 0.89 0.89 0.0 0 0 612.49 564.89
  L 610.63 531.77
  Q 619.63 521.49 620.32 507.95
  Q 620.61 502.24 619.79 496.57
  C 618.51 487.82 614.47 479.42 611.47 470.98
  Q 610.87 469.31 611.49 468.43
  C 615.78 462.22 612.33 454.71 610.17 448.36
  C 608.07 442.20 609.86 434.85 609.45 430.02
  Q 609.08 425.76 608.30 421.72
  C 606.35 411.67 607.65 400.22 602.90 390.97
  Q 599.02 383.39 594.69 375.60
  Q 592.80 372.20 593.96 368.75
  C 595.61 363.82 596.16 359.33 594.91 354.12
  Q 591.42 339.53 583.11 326.49
  Q 582.54 324.57 582.16 320.51
  Q 576.85 263.86 576.75 208.70
  Q 576.74 208.20 576.34 207.89
  Q 574.97 206.84 572.62 206.88
  Q 551.64 202.71 531.25 195.69
  Q 531.99 192.24 533.07 190.69
  A 1.80 1.78 -73.7 0 1 534.42 189.94
  C 545.37 189.35 557.79 184.34 560.19 172.69
  Q 563.33 157.50 564.36 152.96
  Q 564.62 151.82 564.70 150.35
  Q 565.24 150.32 565.19 149.73
  Q 565.16 149.43 564.88 149.14
  Q 561.02 145.08 556.82 141.39
  A 0.48 0.45 -20.5 0 0 556.53 141.27
  Q 556.16 141.25 556.12 141.46
  Q 555.86 141.63 555.64 141.63
  Q 555.09 141.65 555.11 141.10
  L 555.46 129.67
  C 571.17 128.28 582.36 117.53 576.84 100.94
  C 576.41 99.65 575.25 98.25 574.36 97.16
  A 0.52 0.51 -26.2 0 1 574.65 96.33
  C 577.29 95.75 577.69 93.47 576.92 91.28
  Q 574.52 84.43 568.32 80.84
  Q 564.88 78.84 561.38 77.87
  Q 561.32 77.86 561.33 77.80
  L 561.40 77.54
  Q 561.46 77.30 561.70 77.34
  Q 567.66 78.49 573.70 80.78
  Q 575.53 81.48 574.27 79.98
  C 571.69 76.94 566.78 75.76 563.02 74.75
  Q 562.80 74.70 562.74 74.49
  Q 562.60 74.06 563.05 74.00
  Q 564.34 73.82 564.26 72.55
  Q 564.24 72.09 563.78 72.00
  Q 555.92 70.33 548.42 71.91
  C 546.48 72.32 545.49 70.76 543.86 70.15
  C 538.24 68.07 531.47 68.96 525.50 69.64
  C 524.95 69.70 524.44 69.48 523.90 69.47
  Q 523.35 69.45 523.89 69.36
  Q 527.35 68.76 530.77 67.56
  A 0.74 0.73 74.6 0 0 531.24 66.72
  L 531.19 66.47
  Q 531.12 66.14 530.80 66.22
  C 526.57 67.19 519.06 68.54 514.97 66.50
  Q 503.44 60.74 490.82 62.13
  Q 470.10 64.43 457.43 83.49
  Q 457.31 83.66 457.13 83.57
  L 456.90 83.45
  Q 456.82 83.41 456.86 83.32
  Q 459.42 77.34 463.19 72.01
  Q 463.41 71.70 463.30 71.34
  Q 463.17 70.92 462.56 70.86
  A 0.71 0.70 25.7 0 0 461.98 71.06
  Q 459.69 73.34 457.84 77.46
  Q 455.50 82.66 453.68 87.84
  Q 453.50 88.36 453.06 88.67
  Q 452.52 89.04 451.89 89.21
  Q 451.39 89.35 451.10 89.78
  C 449.62 92.03 450.27 94.45 450.69 96.91
  Q 450.79 97.54 450.31 97.95
  C 445.69 101.92 441.64 105.69 437.96 110.92
  A 1.92 1.90 57.8 0 0 437.64 112.36
  Q 437.72 112.82 438.10 113.10
  Q 438.52 113.42 438.81 112.96
  Q 441.17 109.12 444.07 106.18
  Q 445.37 104.86 444.43 106.46
  Q 436.01 120.92 437.13 137.82
  Q 437.22 139.18 438.23 139.86
  Q 438.76 140.21 438.97 139.61
  Q 439.67 137.61 440.09 135.55
  Q 440.12 135.41 440.25 135.36
  Q 440.30 135.34 440.35 135.36
  Q 440.64 135.44 440.65 135.75
  Q 440.70 139.64 441.26 143.99
  A 1.31 1.30 88.4 0 0 442.47 145.14
  Q 444.08 145.23 444.84 143.20
  Q 445.73 140.84 446.09 143.33
  Q 447.31 151.88 453.27 155.93
  C 456.65 158.21 460.68 158.50 464.06 160.80
  C 469.57 164.55 474.56 171.08 477.95 176.70
  Z"
/>
<path fill="#2a2628" d="
  M 555.46 129.67
  L 555.48 117.64
  A 0.53 0.52 71.4 0 0 554.64 117.22
  Q 550.08 120.74 546.03 122.02
  Q 541.82 123.36 534.20 123.18
  Q 533.26 123.16 533.53 122.26
  Q 533.76 121.49 534.47 121.12
  Q 536.05 120.29 537.67 119.67
  C 541.42 118.23 542.31 112.45 542.26 108.70
  Q 542.25 108.01 541.55 108.02
  L 536.80 108.11
  A 1.40 1.39 8.5 0 0 535.50 109.06
  C 533.00 116.64 529.54 121.93 521.45 124.72
  Q 515.30 126.85 509.49 126.92
  Q 508.42 126.94 508.34 128.00
  Q 507.78 135.41 507.45 142.00
  Q 507.37 143.67 506.99 145.45
  A 0.84 0.83 -58.1 0 1 505.51 145.80
  Q 499.84 138.48 491.22 133.81
  C 484.71 130.27 476.25 129.08 474.69 138.42
  C 473.77 143.96 477.67 149.82 482.23 152.98
  C 487.13 156.38 495.63 161.68 501.24 161.91
  A 0.38 0.38 0.0 0 1 501.56 162.47
  L 501.40 162.78
  A 0.97 0.97 0.0 0 1 500.33 163.28
  L 496.54 162.44
  A 0.89 0.88 18.8 0 0 495.54 162.93
  L 485.55 184.26
  A 1.08 1.07 -75.7 0 1 484.50 184.89
  Q 482.54 184.78 480.82 183.66
  Q 480.37 183.37 480.26 182.85
  Q 479.90 181.11 479.34 180.21
  L 477.95 176.70
  C 474.56 171.08 469.57 164.55 464.06 160.80
  C 460.68 158.50 456.65 158.21 453.27 155.93
  Q 447.31 151.88 446.09 143.33
  Q 445.73 140.84 444.84 143.20
  Q 444.08 145.23 442.47 145.14
  A 1.31 1.30 88.4 0 1 441.26 143.99
  Q 440.70 139.64 440.65 135.75
  Q 440.64 135.44 440.35 135.36
  Q 440.30 135.34 440.25 135.36
  Q 440.12 135.41 440.09 135.55
  Q 439.67 137.61 438.97 139.61
  Q 438.76 140.21 438.23 139.86
  Q 437.22 139.18 437.13 137.82
  Q 436.01 120.92 444.43 106.46
  Q 445.37 104.86 444.07 106.18
  Q 441.17 109.12 438.81 112.96
  Q 438.52 113.42 438.10 113.10
  Q 437.72 112.82 437.64 112.36
  A 1.92 1.90 57.8 0 1 437.96 110.92
  C 441.64 105.69 445.69 101.92 450.31 97.95
  Q 450.79 97.54 450.69 96.91
  C 450.27 94.45 449.62 92.03 451.10 89.78
  Q 451.39 89.35 451.89 89.21
  Q 452.52 89.04 453.06 88.67
  Q 453.50 88.36 453.68 87.84
  Q 455.50 82.66 457.84 77.46
  Q 459.69 73.34 461.98 71.06
  A 0.71 0.70 25.7 0 1 462.56 70.86
  Q 463.17 70.92 463.30 71.34
  Q 463.41 71.70 463.19 72.01
  Q 459.42 77.34 456.86 83.32
  Q 456.82 83.41 456.90 83.45
  L 457.13 83.57
  Q 457.31 83.66 457.43 83.49
  Q 470.10 64.43 490.82 62.13
  Q 503.44 60.74 514.97 66.50
  C 519.06 68.54 526.57 67.19 530.80 66.22
  Q 531.12 66.14 531.19 66.47
  L 531.24 66.72
  A 0.74 0.73 74.6 0 1 530.77 67.56
  Q 527.35 68.76 523.89 69.36
  Q 523.35 69.45 523.90 69.47
  C 524.44 69.48 524.95 69.70 525.50 69.64
  C 531.47 68.96 538.24 68.07 543.86 70.15
  C 545.49 70.76 546.48 72.32 548.42 71.91
  Q 555.92 70.33 563.78 72.00
  Q 564.24 72.09 564.26 72.55
  Q 564.34 73.82 563.05 74.00
  Q 562.60 74.06 562.74 74.49
  Q 562.80 74.70 563.02 74.75
  C 566.78 75.76 571.69 76.94 574.27 79.98
  Q 575.53 81.48 573.70 80.78
  Q 567.66 78.49 561.70 77.34
  Q 561.46 77.30 561.40 77.54
  L 561.33 77.80
  Q 561.32 77.86 561.38 77.87
  Q 564.88 78.84 568.32 80.84
  Q 574.52 84.43 576.92 91.28
  C 577.69 93.47 577.29 95.75 574.65 96.33
  A 0.52 0.51 -26.2 0 0 574.36 97.16
  C 575.25 98.25 576.41 99.65 576.84 100.94
  C 582.36 117.53 571.17 128.28 555.46 129.67
  Z
  M 573.0360 95.9470
  A 1.86 0.72 26.4 0 0 571.6901 94.4751
  A 1.86 0.72 26.4 0 0 569.7040 94.2930
  A 1.86 0.72 26.4 0 0 571.0499 95.7649
  A 1.86 0.72 26.4 0 0 573.0360 95.9470
  Z"
/>
<ellipse fill="#fcfcfc" cx="0.00" cy="0.00" transform="translate(571.37,95.12) rotate(26.4)" rx="1.86" ry="0.72"/>
<path fill="#fdd1aa" d="
  M 555.46 129.67
  L 555.11 141.10
  Q 555.09 141.65 555.64 141.63
  Q 555.86 141.63 556.12 141.46
  Q 556.45 142.59 557.33 143.42
  Q 561.02 146.92 564.70 150.35
  Q 564.62 151.82 564.36 152.96
  Q 563.33 157.50 560.19 172.69
  C 557.79 184.34 545.37 189.35 534.42 189.94
  A 1.80 1.78 -73.7 0 0 533.07 190.69
  Q 531.99 192.24 531.25 195.69
  Q 530.00 197.62 529.60 200.92
  Q 529.52 201.51 530.11 201.62
  Q 535.14 202.61 539.50 203.98
  C 541.52 204.61 543.15 205.91 543.32 208.20
  C 543.51 210.66 543.76 213.38 541.75 215.20
  Q 541.33 215.58 541.29 216.14
  Q 541.03 220.17 541.73 223.40
  Q 542.46 226.79 542.89 230.22
  Q 543.47 234.79 544.50 239.65
  Q 544.55 239.92 544.79 240.05
  Q 544.95 240.14 545.11 240.16
  Q 545.34 240.17 545.43 239.97
  Q 545.54 239.73 545.75 239.52
  Q 546.32 241.51 545.46 243.43
  Q 541.23 235.87 535.80 229.44
  Q 528.03 220.25 519.22 213.86
  C 510.15 207.28 498.05 200.16 487.32 193.84
  Q 480.24 189.67 472.33 185.87
  Q 458.06 179.03 447.70 171.96
  Q 443.72 169.24 440.39 165.03
  A 0.29 0.28 61.2 0 1 440.52 164.58
  L 440.78 164.49
  A 0.85 0.84 64.0 0 1 441.75 164.83
  Q 442.92 166.60 444.35 167.25
  Q 453.50 171.45 465.22 174.01
  Q 471.25 175.33 479.34 180.21
  Q 479.90 181.11 480.26 182.85
  Q 480.37 183.37 480.82 183.66
  Q 482.54 184.78 484.50 184.89
  A 1.08 1.07 -75.7 0 0 485.55 184.26
  L 495.54 162.93
  A 0.89 0.88 18.8 0 1 496.54 162.44
  L 500.33 163.28
  A 0.97 0.97 0.0 0 0 501.40 162.78
  L 501.56 162.47
  A 0.38 0.38 0.0 0 0 501.24 161.91
  C 495.63 161.68 487.13 156.38 482.23 152.98
  C 477.67 149.82 473.77 143.96 474.69 138.42
  C 476.25 129.08 484.71 130.27 491.22 133.81
  Q 499.84 138.48 505.51 145.80
  A 0.84 0.83 -58.1 0 0 506.99 145.45
  Q 507.37 143.67 507.45 142.00
  Q 507.78 135.41 508.34 128.00
  Q 508.42 126.94 509.49 126.92
  Q 515.30 126.85 521.45 124.72
  C 529.54 121.93 533.00 116.64 535.50 109.06
  A 1.40 1.39 8.5 0 1 536.80 108.11
  L 541.55 108.02
  Q 542.25 108.01 542.26 108.70
  C 542.31 112.45 541.42 118.23 537.67 119.67
  Q 536.05 120.29 534.47 121.12
  Q 533.76 121.49 533.53 122.26
  Q 533.26 123.16 534.20 123.18
  Q 541.82 123.36 546.03 122.02
  Q 550.08 120.74 554.64 117.22
  A 0.53 0.52 71.4 0 1 555.48 117.64
  L 555.46 129.67
  Z
  M 533.13 129.86
  L 548.94 127.92
  A 0.48 0.48 0.0 0 0 549.35 127.38
  L 549.32 127.09
  A 2.80 1.92 -7.0 0 0 546.30 125.52
  L 535.11 126.90
  A 2.80 1.92 -7.0 0 0 532.56 129.14
  L 532.60 129.44
  A 0.48 0.48 0.0 0 0 533.13 129.86
  Z
  M 543.2708 138.7389
  A 2.82 1.93 75.4 0 0 544.4277 135.5235
  A 2.82 1.93 75.4 0 0 541.8492 133.2811
  A 2.82 1.93 75.4 0 0 540.6923 136.4965
  A 2.82 1.93 75.4 0 0 543.2708 138.7389
  Z
  M 484.46 142.36
  C 485.13 137.97 490.81 141.05 492.49 142.58
  Q 493.12 143.15 494.01 143.27
  Q 494.30 143.31 494.56 143.17
  A 0.54 0.53 53.3 0 0 494.68 142.32
  C 492.53 140.16 487.23 137.10 484.35 139.24
  C 482.21 140.83 482.14 143.70 484.19 145.49
  C 488.46 149.23 494.18 152.19 499.37 154.65
  Q 500.24 155.06 500.72 154.23
  L 500.91 153.90
  A 0.56 0.55 27.6 0 0 500.66 153.12
  Q 492.75 149.42 485.47 144.64
  A 2.31 2.30 21.3 0 1 484.46 142.36
  Z
  M 558.27 164.64
  A 0.70 0.70 0.0 0 0 557.57 163.94
  L 550.99 163.94
  A 0.70 0.70 0.0 0 0 550.29 164.64
  L 550.29 164.70
  A 0.70 0.70 0.0 0 0 550.99 165.40
  L 557.57 165.40
  A 0.70 0.70 0.0 0 0 558.27 164.70
  L 558.27 164.64
  Z"
/>
<path fill="#2a2628" d="
  M 533.13 129.86
  A 0.48 0.48 0.0 0 1 532.60 129.44
  L 532.56 129.14
  A 2.80 1.92 -7.0 0 1 535.11 126.90
  L 546.30 125.52
  A 2.80 1.92 -7.0 0 1 549.32 127.09
  L 549.35 127.38
  A 0.48 0.48 0.0 0 1 548.94 127.92
  L 533.13 129.86
  Z"
/>
<ellipse fill="#2a2628" cx="0.00" cy="0.00" transform="translate(542.56,136.01) rotate(75.4)" rx="2.82" ry="1.93"/>
<path fill="#2a2628" d="
  M 484.46 142.36
  A 2.31 2.30 21.3 0 0 485.47 144.64
  Q 492.75 149.42 500.66 153.12
  A 0.56 0.55 27.6 0 1 500.91 153.90
  L 500.72 154.23
  Q 500.24 155.06 499.37 154.65
  C 494.18 152.19 488.46 149.23 484.19 145.49
  C 482.14 143.70 482.21 140.83 484.35 139.24
  C 487.23 137.10 492.53 140.16 494.68 142.32
  A 0.54 0.53 53.3 0 1 494.56 143.17
  Q 494.30 143.31 494.01 143.27
  Q 493.12 143.15 492.49 142.58
  C 490.81 141.05 485.13 137.97 484.46 142.36
  Z"
/>
<path fill="#2a2628" d="
  M 564.70 150.35
  Q 561.02 146.92 557.33 143.42
  Q 556.45 142.59 556.12 141.46
  Q 556.16 141.25 556.53 141.27
  A 0.48 0.45 -20.5 0 1 556.82 141.39
  Q 561.02 145.08 564.88 149.14
  Q 565.16 149.43 565.19 149.73
  Q 565.24 150.32 564.70 150.35
  Z"
/>
<path fill="#f5ddbf" d="
  M 477.95 176.70
  L 479.34 180.21
  Q 471.25 175.33 465.22 174.01
  Q 453.50 171.45 444.35 167.25
  Q 442.92 166.60 441.75 164.83
  A 0.85 0.84 64.0 0 0 440.78 164.49
  L 440.52 164.58
  A 0.29 0.28 61.2 0 0 440.39 165.03
  Q 443.72 169.24 447.70 171.96
  Q 458.06 179.03 472.33 185.87
  Q 480.24 189.67 487.32 193.84
  C 498.05 200.16 510.15 207.28 519.22 213.86
  Q 528.03 220.25 535.80 229.44
  Q 541.23 235.87 545.46 243.43
  Q 547.29 247.89 547.38 249.37
  Q 548.55 267.11 550.46 286.25
  Q 551.38 295.47 553.51 325.50
  Q 554.12 334.09 555.27 342.75
  C 559.70 375.97 564.98 407.58 570.02 441.36
  Q 571.52 451.40 572.69 461.12
  Q 577.95 504.59 581.29 549.23
  A 0.25 0.24 -3.3 0 1 581.05 549.49
  Q 535.23 550.17 488.89 556.04
  Q 488.38 556.10 488.27 555.60
  L 480.21 517.67
  A 0.54 0.54 0.0 0 1 480.77 517.02
  C 491.41 517.64 503.25 517.73 513.50 514.99
  Q 514.90 514.61 516.05 513.78
  Q 516.92 513.14 515.86 513.33
  C 503.05 515.61 489.87 516.35 477.51 515.16
  Q 473.79 514.80 466.40 513.44
  Q 461.36 512.52 455.18 511.85
  C 450.01 511.29 446.20 507.38 442.69 503.78
  Q 430.50 491.30 420.17 479.88
  Q 402.18 460.00 388.09 437.83
  C 384.12 431.59 380.17 424.17 379.15 417.10
  Q 378.85 415.01 378.57 412.85
  Q 378.72 404.54 379.87 396.06
  Q 387.11 343.02 402.47 291.76
  Q 402.61 291.29 401.88 290.74
  Q 402.73 290.83 403.00 290.00
  Q 406.01 280.89 408.96 271.05
  A 1.45 1.45 0.0 0 0 408.05 269.26
  C 394.13 264.25 392.93 246.75 394.74 234.59
  Q 397.79 214.10 407.28 196.34
  Q 413.72 184.29 424.87 174.21
  C 429.26 170.24 433.82 166.42 438.99 163.59
  Q 439.51 163.30 440.09 163.47
  C 443.29 164.43 445.86 166.28 449.15 167.12
  Q 460.59 170.05 470.78 173.68
  Q 472.42 174.26 475.85 177.54
  Q 476.23 177.90 476.74 177.92
  Q 477.87 177.95 477.95 176.70
  Z
  M 490.51 231.70
  L 541.92 259.78
  Q 542.43 260.06 542.42 259.47
  L 542.40 258.81
  A 1.11 1.08 -76.5 0 0 541.85 257.89
  Q 516.72 243.96 491.51 230.40
  C 490.35 229.78 488.05 228.59 487.63 227.25
  Q 487.42 226.58 487.89 225.98
  Q 489.18 224.29 487.05 224.34
  Q 463.29 224.93 444.82 233.05
  C 429.15 239.93 419.83 249.54 411.76 264.07
  A 0.36 0.36 0.0 0 0 412.04 264.61
  L 412.34 264.64
  Q 413.08 264.71 413.46 264.06
  Q 417.05 257.97 420.98 252.79
  C 429.66 241.34 444.22 234.01 458.24 229.92
  Q 459.06 229.68 459.53 230.39
  C 463.09 235.72 465.86 241.64 468.59 247.52
  Q 475.28 261.96 477.65 276.38
  Q 482.85 308.08 481.70 341.57
  C 481.56 345.90 483.67 350.05 483.82 354.48
  Q 483.91 357.23 483.73 360.04
  C 482.72 376.39 479.62 390.94 476.10 408.04
  C 475.53 410.80 474.48 412.75 472.23 414.50
  Q 467.42 418.24 462.31 418.91
  C 453.20 420.10 443.63 419.87 434.47 420.23
  Q 427.19 420.52 421.82 423.18
  C 417.16 425.49 412.60 428.64 407.28 429.11
  Q 399.12 429.84 391.62 426.63
  Q 391.11 426.42 391.03 426.96
  L 390.99 427.26
  A 0.96 0.94 -75.6 0 0 391.57 428.26
  C 397.70 430.72 405.38 432.02 411.77 430.00
  C 415.06 428.96 418.13 427.06 421.18 425.37
  C 425.62 422.91 429.91 421.88 435.03 421.70
  Q 446.55 421.28 457.83 420.95
  C 465.52 420.73 472.06 418.44 476.59 412.15
  A 0.47 0.47 0.0 0 1 477.33 412.12
  Q 480.39 415.64 484.40 418.42
  Q 486.67 419.99 484.47 421.66
  Q 481.51 423.91 479.16 426.94
  Q 478.64 427.60 478.90 428.40
  L 479.02 428.76
  Q 479.18 429.26 479.53 428.87
  L 481.96 426.19
  Q 482.56 425.53 482.77 426.40
  Q 483.78 430.46 484.78 434.76
  C 486.09 440.40 483.74 444.51 480.02 448.21
  Q 468.58 459.59 457.71 470.51
  A 0.67 0.67 0.0 0 0 457.80 471.54
  L 458.00 471.69
  Q 458.30 471.90 458.56 471.65
  Q 468.42 462.07 478.55 451.91
  C 482.67 447.77 486.82 444.01 486.56 437.76
  A 0.51 0.51 0.0 0 1 487.25 437.26
  Q 494.72 440.15 502.58 445.84
  C 507.99 449.75 511.98 455.03 512.58 461.51
  Q 513.27 468.85 512.76 477.34
  Q 511.81 493.61 510.11 509.48
  A 0.40 0.40 0.0 0 0 510.59 509.91
  L 510.87 509.84
  A 1.04 1.03 -3.1 0 0 511.68 508.94
  Q 514.37 484.36 514.39 465.38
  Q 514.40 453.54 505.51 446.30
  Q 497.11 439.46 488.17 435.96
  Q 486.80 435.43 486.41 434.02
  Q 485.23 429.82 484.10 425.34
  A 1.19 1.19 0.0 0 1 484.50 424.12
  Q 486.39 422.60 487.59 420.67
  Q 487.84 420.28 487.68 419.85
  C 486.72 417.17 481.03 413.61 478.44 411.78
  A 0.98 0.98 0.0 0 1 478.16 410.48
  Q 482.32 403.56 485.39 395.24
  A 1.14 1.13 -80.2 0 1 486.44 394.49
  Q 492.00 394.35 497.35 392.43
  Q 499.63 391.62 499.50 389.17
  C 499.29 385.16 498.87 378.19 495.19 376.27
  A 1.60 1.60 0.0 0 1 494.33 374.82
  C 494.54 362.28 495.51 349.82 499.04 337.94
  C 500.08 334.46 502.43 331.66 503.02 328.05
  Q 503.77 323.47 504.08 319.07
  C 506.15 289.21 502.03 259.78 489.92 232.24
  Q 489.43 231.11 490.51 231.70
  Z
  M 433.4627 253.6891
  A 0.69 0.69 0.0 0 0 432.7631 253.0088
  L 432.5231 253.0121
  A 0.69 0.69 0.0 0 0 431.8428 253.7117
  L 431.9573 261.9109
  A 0.69 0.69 0.0 0 0 432.6569 262.5912
  L 432.8969 262.5879
  A 0.69 0.69 0.0 0 0 433.5772 261.8883
  L 433.4627 253.6891
  Z
  M 480.39 338.30
  C 477.41 321.51 474.66 305.33 471.25 288.55
  Q 469.32 279.03 467.77 269.89
  Q 467.76 269.79 467.68 269.75
  Q 466.29 268.99 466.20 270.85
  A 2.26 2.07 -52.0 0 0 466.24 271.36
  Q 472.69 304.77 477.86 332.98
  Q 478.46 336.24 480.01 338.46
  Q 480.56 339.27 480.39 338.30
  Z
  M 428.73 283.08
  L 429.02 282.95
  Q 429.61 282.67 429.84 282.06
  Q 431.18 278.60 431.59 275.01
  A 0.36 0.36 0.0 0 0 431.11 274.63
  L 430.86 274.72
  A 1.41 1.41 0.0 0 0 429.98 275.68
  L 428.20 282.64
  A 0.38 0.38 0.0 0 0 428.73 283.08
  Z
  M 401.44 330.12
  A 0.40 0.40 0.0 0 0 401.51 330.67
  L 401.72 330.83
  Q 402.37 331.33 402.88 330.69
  Q 408.79 323.18 416.53 311.66
  Q 423.04 301.99 426.06 292.69
  Q 426.18 292.32 425.83 292.18
  L 425.50 292.04
  A 0.52 0.51 20.9 0 0 424.81 292.34
  Q 421.52 301.36 416.44 309.09
  Q 410.35 318.35 401.44 330.12
  Z
  M 471.72 326.20
  C 462.61 320.18 454.96 312.26 446.44 306.21
  C 441.13 302.43 433.52 302.55 427.05 303.07
  Q 426.34 303.12 426.36 303.83
  L 426.37 304.17
  A 0.45 0.44 88.1 0 0 426.83 304.61
  Q 432.07 304.37 436.94 304.62
  C 443.91 304.99 447.01 308.37 453.52 313.91
  Q 459.83 319.28 466.30 324.44
  Q 468.70 326.36 471.49 327.40
  Q 471.65 327.46 471.81 327.42
  Q 472.33 327.29 471.96 326.48
  A 0.73 0.68 6.3 0 0 471.72 326.20
  Z"
/>
<rect fill="#2a2628" x="550.29" y="163.94" width="7.98" height="1.46" rx="0.70"/>
<path fill="#f5ddbf" d="
  M 531.25 195.69
  Q 551.64 202.71 572.62 206.88
  C 572.83 235.08 574.51 263.39 576.38 291.53
  Q 578.56 324.17 585.20 368.45
  Q 590.61 404.56 596.24 440.01
  Q 597.80 449.89 599.09 459.43
  C 603.96 495.71 608.03 529.42 609.43 565.70
  Q 608.03 566.62 607.23 566.70
  Q 595.15 567.84 582.97 568.07
  Q 509.10 566.95 436.59 583.10
  L 424.77 585.49
  A 1.53 1.53 0.0 0 1 422.96 584.28
  C 420.67 572.05 418.63 560.18 416.89 547.33
  Q 415.60 537.89 414.17 528.58
  L 407.51 468.24
  Q 407.38 467.09 408.11 467.99
  Q 412.03 472.86 416.57 478.25
  C 423.56 486.56 431.39 494.45 438.77 502.43
  Q 444.40 508.51 448.10 510.96
  C 452.90 514.12 458.60 514.14 463.97 514.49
  A 1.22 1.22 0.0 0 1 465.08 515.44
  Q 470.24 538.65 475.15 563.56
  Q 476.08 568.28 479.34 568.20
  C 482.29 568.13 488.30 567.76 489.53 564.26
  C 490.17 562.45 488.96 560.37 488.77 558.47
  Q 488.70 557.85 489.32 557.77
  Q 534.64 552.05 581.09 551.10
  A 0.48 0.48 0.0 0 1 581.58 551.55
  L 582.33 563.83
  Q 582.37 564.54 583.09 564.57
  L 585.98 564.70
  Q 586.61 564.73 586.57 564.10
  Q 584.32 520.45 577.48 468.88
  C 571.83 426.31 562.35 383.48 556.92 340.44
  Q 555.76 331.26 554.97 320.69
  Q 552.74 290.82 550.18 261.69
  C 548.89 246.97 546.54 232.09 545.06 217.13
  Q 544.99 216.38 544.25 216.23
  L 543.97 216.17
  Q 543.37 216.05 543.43 216.66
  L 545.75 239.52
  Q 545.54 239.73 545.43 239.97
  Q 545.34 240.17 545.11 240.16
  Q 544.95 240.14 544.79 240.05
  Q 544.55 239.92 544.50 239.65
  Q 543.47 234.79 542.89 230.22
  Q 542.46 226.79 541.73 223.40
  Q 541.03 220.17 541.29 216.14
  Q 541.33 215.58 541.75 215.20
  C 543.76 213.38 543.51 210.66 543.32 208.20
  C 543.15 205.91 541.52 204.61 539.50 203.98
  Q 535.14 202.61 530.11 201.62
  Q 529.52 201.51 529.60 200.92
  Q 530.00 197.62 531.25 195.69
  Z
  M 564.0457 224.8482
  A 3.67 3.19 94.6 0 0 567.5197 221.4458
  A 3.67 3.19 94.6 0 0 564.6343 217.5318
  A 3.67 3.19 94.6 0 0 561.1603 220.9342
  A 3.67 3.19 94.6 0 0 564.0457 224.8482
  Z
  M 562.5884 331.5165
  A 3.16 2.93 103.2 0 0 566.1626 329.1091
  A 3.16 2.93 103.2 0 0 564.0316 325.3635
  A 3.16 2.93 103.2 0 0 560.4574 327.7709
  A 3.16 2.93 103.2 0 0 562.5884 331.5165
  Z
  M 580.4543 433.1107
  A 3.25 2.96 104.9 0 0 584.1505 430.7311
  A 3.25 2.96 104.9 0 0 582.1257 426.8293
  A 3.25 2.96 104.9 0 0 578.4295 429.2089
  A 3.25 2.96 104.9 0 0 580.4543 433.1107
  Z
  M 590.0690 538.9261
  A 3.29 3.08 127.9 0 0 594.5204 538.2220
  A 3.29 3.08 127.9 0 0 594.1110 533.7339
  A 3.29 3.08 127.9 0 0 589.6596 534.4380
  A 3.29 3.08 127.9 0 0 590.0690 538.9261
  Z"
/>
<path fill="#2a2628" d="
  M 583.11 326.49
  Q 585.42 349.96 588.02 366.50
  Q 593.62 402.16 599.16 437.82
  Q 606.31 483.92 610.63 531.77
  L 612.49 564.89
  A 0.89 0.89 0.0 0 1 611.82 565.80
  Q 610.53 566.13 609.43 565.70
  C 608.03 529.42 603.96 495.71 599.09 459.43
  Q 597.80 449.89 596.24 440.01
  Q 590.61 404.56 585.20 368.45
  Q 578.56 324.17 576.38 291.53
  C 574.51 263.39 572.83 235.08 572.62 206.88
  Q 574.97 206.84 576.34 207.89
  Q 576.74 208.20 576.75 208.70
  Q 576.85 263.86 582.16 320.51
  Q 582.54 324.57 583.11 326.49
  Z"
/>
<path fill="#2a2628" d="
  M 414.17 528.58
  C 407.36 528.78 400.96 529.04 394.06 529.97
  Q 379.79 531.89 365.49 533.71
  Q 359.72 534.44 355.65 531.31
  Q 352.02 524.14 350.86 516.53
  C 347.57 494.82 346.65 471.79 346.58 449.51
  C 346.49 422.72 347.08 396.80 348.60 370.93
  Q 349.94 348.21 349.05 324.25
  A 0.75 0.74 -7.0 0 1 349.64 323.50
  L 349.91 323.45
  A 0.32 0.31 83.2 0 1 350.29 323.75
  Q 351.12 347.84 350.32 365.32
  Q 349.20 389.86 348.39 413.96
  A 0.91 0.91 0.0 0 0 349.37 414.90
  L 378.57 412.85
  Q 378.85 415.01 379.15 417.10
  C 380.17 424.17 384.12 431.59 388.09 437.83
  Q 402.18 460.00 420.17 479.88
  Q 430.50 491.30 442.69 503.78
  C 446.20 507.38 450.01 511.29 455.18 511.85
  Q 461.36 512.52 466.40 513.44
  Q 473.79 514.80 477.51 515.16
  C 489.87 516.35 503.05 515.61 515.86 513.33
  Q 516.92 513.14 516.05 513.78
  Q 514.90 514.61 513.50 514.99
  C 503.25 517.73 491.41 517.64 480.77 517.02
  A 0.54 0.54 0.0 0 0 480.21 517.67
  L 488.27 555.60
  Q 488.38 556.10 488.89 556.04
  Q 535.23 550.17 581.05 549.49
  A 0.25 0.24 -3.3 0 0 581.29 549.23
  Q 577.95 504.59 572.69 461.12
  Q 571.52 451.40 570.02 441.36
  C 564.98 407.58 559.70 375.97 555.27 342.75
  Q 554.12 334.09 553.51 325.50
  Q 551.38 295.47 550.46 286.25
  Q 548.55 267.11 547.38 249.37
  Q 547.29 247.89 545.46 243.43
  Q 546.32 241.51 545.75 239.52
  L 543.43 216.66
  Q 543.37 216.05 543.97 216.17
  L 544.25 216.23
  Q 544.99 216.38 545.06 217.13
  C 546.54 232.09 548.89 246.97 550.18 261.69
  Q 552.74 290.82 554.97 320.69
  Q 555.76 331.26 556.92 340.44
  C 562.35 383.48 571.83 426.31 577.48 468.88
  Q 584.32 520.45 586.57 564.10
  Q 586.61 564.73 585.98 564.70
  L 583.09 564.57
  Q 582.37 564.54 582.33 563.83
  L 581.58 551.55
  A 0.48 0.48 0.0 0 0 581.09 551.10
  Q 534.64 552.05 489.32 557.77
  Q 488.70 557.85 488.77 558.47
  C 488.96 560.37 490.17 562.45 489.53 564.26
  C 488.30 567.76 482.29 568.13 479.34 568.20
  Q 476.08 568.28 475.15 563.56
  Q 470.24 538.65 465.08 515.44
  A 1.22 1.22 0.0 0 0 463.97 514.49
  C 458.60 514.14 452.90 514.12 448.10 510.96
  Q 444.40 508.51 438.77 502.43
  C 431.39 494.45 423.56 486.56 416.57 478.25
  Q 412.03 472.86 408.11 467.99
  Q 407.38 467.09 407.51 468.24
  L 414.17 528.58
  Z"
/>
<ellipse fill="#2a2628" cx="0.00" cy="0.00" transform="translate(564.34,221.19) rotate(94.6)" rx="3.67" ry="3.19"/>
<path fill="#2a2628" d="
  M 490.51 231.70
  Q 489.43 231.11 489.92 232.24
  C 502.03 259.78 506.15 289.21 504.08 319.07
  Q 503.77 323.47 503.02 328.05
  C 502.43 331.66 500.08 334.46 499.04 337.94
  C 495.51 349.82 494.54 362.28 494.33 374.82
  A 1.60 1.60 0.0 0 0 495.19 376.27
  C 498.87 378.19 499.29 385.16 499.50 389.17
  Q 499.63 391.62 497.35 392.43
  Q 492.00 394.35 486.44 394.49
  A 1.14 1.13 -80.2 0 0 485.39 395.24
  Q 482.32 403.56 478.16 410.48
  A 0.98 0.98 0.0 0 0 478.44 411.78
  C 481.03 413.61 486.72 417.17 487.68 419.85
  Q 487.84 420.28 487.59 420.67
  Q 486.39 422.60 484.50 424.12
  A 1.19 1.19 0.0 0 0 484.10 425.34
  Q 485.23 429.82 486.41 434.02
  Q 486.80 435.43 488.17 435.96
  Q 497.11 439.46 505.51 446.30
  Q 514.40 453.54 514.39 465.38
  Q 514.37 484.36 511.68 508.94
  A 1.04 1.03 -3.1 0 1 510.87 509.84
  L 510.59 509.91
  A 0.40 0.40 0.0 0 1 510.11 509.48
  Q 511.81 493.61 512.76 477.34
  Q 513.27 468.85 512.58 461.51
  C 511.98 455.03 507.99 449.75 502.58 445.84
  Q 494.72 440.15 487.25 437.26
  A 0.51 0.51 0.0 0 0 486.56 437.76
  C 486.82 444.01 482.67 447.77 478.55 451.91
  Q 468.42 462.07 458.56 471.65
  Q 458.30 471.90 458.00 471.69
  L 457.80 471.54
  A 0.67 0.67 0.0 0 1 457.71 470.51
  Q 468.58 459.59 480.02 448.21
  C 483.74 444.51 486.09 440.40 484.78 434.76
  Q 483.78 430.46 482.77 426.40
  Q 482.56 425.53 481.96 426.19
  L 479.53 428.87
  Q 479.18 429.26 479.02 428.76
  L 478.90 428.40
  Q 478.64 427.60 479.16 426.94
  Q 481.51 423.91 484.47 421.66
  Q 486.67 419.99 484.40 418.42
  Q 480.39 415.64 477.33 412.12
  A 0.47 0.47 0.0 0 0 476.59 412.15
  C 472.06 418.44 465.52 420.73 457.83 420.95
  Q 446.55 421.28 435.03 421.70
  C 429.91 421.88 425.62 422.91 421.18 425.37
  C 418.13 427.06 415.06 428.96 411.77 430.00
  C 405.38 432.02 397.70 430.72 391.57 428.26
  A 0.96 0.94 -75.6 0 1 390.99 427.26
  L 391.03 426.96
  Q 391.11 426.42 391.62 426.63
  Q 399.12 429.84 407.28 429.11
  C 412.60 428.64 417.16 425.49 421.82 423.18
  Q 427.19 420.52 434.47 420.23
  C 443.63 419.87 453.20 420.10 462.31 418.91
  Q 467.42 418.24 472.23 414.50
  C 474.48 412.75 475.53 410.80 476.10 408.04
  C 479.62 390.94 482.72 376.39 483.73 360.04
  Q 483.91 357.23 483.82 354.48
  C 483.67 350.05 481.56 345.90 481.70 341.57
  Q 482.85 308.08 477.65 276.38
  Q 475.28 261.96 468.59 247.52
  C 465.86 241.64 463.09 235.72 459.53 230.39
  Q 459.06 229.68 458.24 229.92
  C 444.22 234.01 429.66 241.34 420.98 252.79
  Q 417.05 257.97 413.46 264.06
  Q 413.08 264.71 412.34 264.64
  L 412.04 264.61
  A 0.36 0.36 0.0 0 1 411.76 264.07
  C 419.83 249.54 429.15 239.93 444.82 233.05
  Q 463.29 224.93 487.05 224.34
  Q 489.18 224.29 487.89 225.98
  Q 487.42 226.58 487.63 227.25
  C 488.05 228.59 490.35 229.78 491.51 230.40
  Q 516.72 243.96 541.85 257.89
  A 1.11 1.08 -76.5 0 1 542.40 258.81
  L 542.42 259.47
  Q 542.43 260.06 541.92 259.78
  L 490.51 231.70
  Z"
/>
<rect fill="#2a2628" x="-0.81" y="-4.79" transform="translate(432.71,257.80) rotate(-0.8)" width="1.62" height="9.58" rx="0.69"/>
<path fill="#2a2628" d="
  M 480.39 338.30
  Q 480.56 339.27 480.01 338.46
  Q 478.46 336.24 477.86 332.98
  Q 472.69 304.77 466.24 271.36
  A 2.26 2.07 -52.0 0 1 466.20 270.85
  Q 466.29 268.99 467.68 269.75
  Q 467.76 269.79 467.77 269.89
  Q 469.32 279.03 471.25 288.55
  C 474.66 305.33 477.41 321.51 480.39 338.30
  Z"
/>
<path fill="#2a2628" d="
  M 428.20 282.64
  L 429.98 275.68
  A 1.41 1.41 0.0 0 1 430.86 274.72
  L 431.11 274.63
  A 0.36 0.36 0.0 0 1 431.59 275.01
  Q 431.18 278.60 429.84 282.06
  Q 429.61 282.67 429.02 282.95
  L 428.73 283.08
  A 0.38 0.38 0.0 0 1 428.20 282.64
  Z"
/>
<path fill="#bf9362" d="
  M 401.88 290.74
  Q 402.61 291.29 402.47 291.76
  Q 387.11 343.02 379.87 396.06
  Q 378.72 404.54 378.57 412.85
  L 349.37 414.90
  A 0.91 0.91 0.0 0 1 348.39 413.96
  Q 349.20 389.86 350.32 365.32
  Q 351.12 347.84 350.29 323.75
  A 0.32 0.31 83.2 0 0 349.91 323.45
  L 349.64 323.50
  A 0.75 0.74 -7.0 0 0 349.05 324.25
  Q 349.94 348.21 348.60 370.93
  C 347.08 396.80 346.49 422.72 346.58 449.51
  C 346.65 471.79 347.57 494.82 350.86 516.53
  Q 352.02 524.14 355.65 531.31
  Q 343.24 534.18 335.19 526.55
  Q 329.08 520.77 327.73 510.57
  Q 325.85 496.44 324.99 480.76
  Q 321.59 418.43 328.40 357.13
  Q 330.15 341.45 340.01 330.25
  Q 353.97 314.40 369.67 304.09
  Q 376.34 299.71 385.83 295.37
  Q 393.87 291.70 401.88 290.74
  Z"
/>
<path fill="#2a2628" d="
  M 401.44 330.12
  Q 410.35 318.35 416.44 309.09
  Q 421.52 301.36 424.81 292.34
  A 0.52 0.51 20.9 0 1 425.50 292.04
  L 425.83 292.18
  Q 426.18 292.32 426.06 292.69
  Q 423.04 301.99 416.53 311.66
  Q 408.79 323.18 402.88 330.69
  Q 402.37 331.33 401.72 330.83
  L 401.51 330.67
  A 0.40 0.40 0.0 0 1 401.44 330.12
  Z"
/>
<path fill="#2a2628" d="
  M 446.44 306.21
  C 454.96 312.26 462.61 320.18 471.72 326.20
  A 0.73 0.68 6.3 0 1 471.96 326.48
  Q 472.33 327.29 471.81 327.42
  Q 471.65 327.46 471.49 327.40
  Q 468.70 326.36 466.30 324.44
  Q 459.83 319.28 453.52 313.91
  C 447.01 308.37 443.91 304.99 436.94 304.62
  Q 432.07 304.37 426.83 304.61
  A 0.45 0.44 88.1 0 1 426.37 304.17
  L 426.36 303.83
  Q 426.34 303.12 427.05 303.07
  C 433.52 302.55 441.13 302.43 446.44 306.21
  Z"
/>
<ellipse fill="#2a2628" cx="0.00" cy="0.00" transform="translate(563.31,328.44) rotate(103.2)" rx="3.16" ry="2.93"/>
<path fill="#f5ddbf" d="
  M 610.63 531.77
  Q 606.31 483.92 599.16 437.82
  Q 593.62 402.16 588.02 366.50
  Q 585.42 349.96 583.11 326.49
  Q 591.42 339.53 594.91 354.12
  C 596.16 359.33 595.61 363.82 593.96 368.75
  Q 592.80 372.20 594.69 375.60
  Q 599.02 383.39 602.90 390.97
  C 607.65 400.22 606.35 411.67 608.30 421.72
  Q 609.08 425.76 609.45 430.02
  C 609.86 434.85 608.07 442.20 610.17 448.36
  C 612.33 454.71 615.78 462.22 611.49 468.43
  Q 610.87 469.31 611.47 470.98
  C 614.47 479.42 618.51 487.82 619.79 496.57
  Q 620.61 502.24 620.32 507.95
  Q 619.63 521.49 610.63 531.77
  Z"
/>
<ellipse fill="#2a2628" cx="0.00" cy="0.00" transform="translate(581.29,429.97) rotate(104.9)" rx="3.25" ry="2.96"/>
<ellipse fill="#2a2628" cx="0.00" cy="0.00" transform="translate(592.09,536.33) rotate(127.9)" rx="3.29" ry="3.08"/>
<path fill="#503e36" d="
  M 582.97 568.07
  Q 583.03 572.87 582.74 577.53
  Q 578.13 651.16 567.98 731.48
  Q 567.37 736.31 565.61 740.90
  C 564.36 744.16 561.83 746.71 559.85 749.57
  Q 558.56 751.44 558.59 754.66
  Q 558.91 783.44 558.25 800.15
  C 557.98 807.05 557.03 814.40 555.81 821.16
  Q 553.39 834.50 553.12 845.09
  Q 552.77 859.12 552.88 873.76
  Q 552.91 879.10 551.54 882.42
  Q 546.43 894.71 534.01 896.10
  Q 533.40 896.17 533.40 896.78
  L 533.50 916.82
  L 498.43 924.98
  A 0.75 0.75 0.0 0 1 497.51 924.36
  C 497.00 921.14 494.14 919.74 491.18 919.49
  Q 485.68 919.03 480.56 919.33
  A 0.82 0.82 0.0 0 1 479.69 918.49
  L 480.25 895.16
  A 1.41 1.41 0.0 0 1 481.47 893.79
  C 493.44 892.13 500.85 882.64 502.25 871.17
  Q 503.19 863.47 503.11 854.46
  Q 502.95 836.48 502.87 818.60
  Q 502.82 806.48 504.52 796.56
  C 505.92 788.33 509.64 778.82 512.44 770.30
  C 515.02 762.45 513.08 755.16 514.21 747.25
  Q 514.76 743.39 515.84 740.03
  C 530.21 695.61 540.39 651.18 547.76 605.02
  Q 549.59 593.55 550.68 582.72
  Q 550.70 582.54 550.52 582.51
  L 550.26 582.48
  A 0.30 0.30 0.0 0 0 549.93 582.74
  Q 547.02 605.44 545.97 611.73
  Q 538.23 657.90 525.28 705.22
  Q 520.68 722.02 515.21 738.35
  C 513.92 742.22 512.80 746.48 512.84 750.62
  C 512.90 756.88 513.95 763.02 511.87 769.20
  Q 508.67 778.70 505.80 788.41
  C 502.70 798.87 501.76 808.49 501.81 820.01
  Q 501.92 843.77 501.93 864.24
  C 501.94 879.00 496.42 891.14 480.35 893.42
  A 1.21 1.20 87.2 0 0 479.32 894.57
  L 478.38 919.09
  A 0.81 0.81 0.0 0 1 477.72 919.86
  Q 472.63 920.78 467.21 921.70
  C 461.13 922.74 452.16 924.95 444.23 925.64
  Q 434.27 926.50 425.11 923.05
  Q 422.77 920.66 422.03 919.46
  Q 421.30 918.28 421.25 916.81
  Q 420.79 903.63 421.71 892.12
  Q 421.77 891.42 421.21 891.00
  Q 416.05 887.15 414.28 879.26
  C 411.77 868.11 411.70 856.60 412.23 845.38
  Q 413.95 808.75 416.09 772.07
  C 416.49 765.07 421.06 759.27 426.76 755.62
  Q 427.23 755.32 426.96 754.83
  Q 421.69 745.61 422.03 735.78
  Q 424.13 674.49 426.13 632.57
  C 426.62 622.26 430.23 610.58 438.10 603.74
  A 1.24 1.22 66.9 0 0 438.52 602.67
  L 436.59 583.10
  Q 509.10 566.95 582.97 568.07
  Z
  M 462.4461 612.3623
  A 0.26 0.26 0.0 0 0 462.2137 612.0773
  L 462.0943 612.0652
  A 0.26 0.26 0.0 0 0 461.8094 612.2976
  L 457.0739 658.9177
  A 0.26 0.26 0.0 0 0 457.3063 659.2027
  L 457.4257 659.2148
  A 0.26 0.26 0.0 0 0 457.7106 658.9824
  L 462.4461 612.3623
  Z
  M 452.67 749.54
  C 452.68 731.73 453.42 713.71 454.62 695.65
  Q 454.63 695.50 454.49 695.45
  L 454.18 695.35
  Q 453.92 695.27 453.90 695.55
  Q 451.67 722.59 452.08 749.64
  Q 452.08 749.68 452.12 749.69
  L 452.40 749.75
  Q 452.67 749.82 452.67 749.54
  Z
  M 444.8620 777.4448
  A 0.30 0.30 0.0 0 0 444.5831 777.1251
  L 444.3835 777.1115
  A 0.30 0.30 0.0 0 0 444.0638 777.3904
  L 440.6780 827.0552
  A 0.30 0.30 0.0 0 0 440.9569 827.3749
  L 441.1565 827.3885
  A 0.30 0.30 0.0 0 0 441.4762 827.1096
  L 444.8620 777.4448
  Z
  M 442.10 890.93
  C 441.29 890.20 440.58 889.61 440.12 888.58
  Q 438.16 884.19 437.42 878.79
  Q 435.81 867.03 436.41 854.55
  Q 436.42 854.38 436.25 854.37
  L 435.99 854.35
  Q 435.75 854.33 435.73 854.58
  Q 434.55 869.93 437.86 884.60
  C 438.26 886.34 439.88 891.11 441.88 891.40
  Q 442.76 891.53 442.10 890.93
  Z
  M 442.9319 896.6849
  A 0.30 0.30 0.0 0 0 442.6346 896.3822
  L 442.2346 896.3788
  A 0.30 0.30 0.0 0 0 441.9320 896.6761
  L 441.7081 922.3351
  A 0.30 0.30 0.0 0 0 442.0054 922.6378
  L 442.4054 922.6412
  A 0.30 0.30 0.0 0 0 442.7080 922.3439
  L 442.9319 896.6849
  Z"
/>
<path fill="#2a2628" d="
  M 533.50 916.82
  Q 535.74 917.39 538.14 917.99
  Q 540.58 918.61 542.80 918.82
  C 548.11 919.31 562.39 919.44 562.11 927.82
  A 0.92 0.92 0.0 0 1 561.06 928.70
  Q 558.73 928.36 556.47 927.51
  Q 549.39 924.86 542.29 922.18
  Q 542.08 922.10 541.93 922.26
  Q 541.84 922.37 541.87 922.53
  Q 541.88 922.57 541.91 922.60
  Q 544.74 924.67 547.82 926.41
  C 554.78 930.35 562.10 934.91 569.54 937.47
  Q 572.30 938.41 577.03 938.47
  Q 590.20 938.63 602.98 940.99
  Q 611.51 942.58 618.10 947.34
  Q 619.13 949.75 617.34 952.60
  Q 602.48 951.54 591.00 953.21
  C 579.11 954.93 567.32 957.13 555.26 957.12
  Q 553.75 957.12 552.27 956.97
  C 549.72 956.71 548.88 954.00 546.20 953.82
  Q 538.15 953.26 533.18 954.02
  Q 505.69 958.17 477.13 956.38
  Q 452.07 954.81 418.54 953.38
  L 418.43 950.16
  Q 418.41 947.26 419.57 944.96
  Q 419.83 944.45 419.77 943.88
  Q 419.39 939.96 419.78 936.21
  C 420.34 930.89 423.27 926.89 425.11 923.05
  Q 434.27 926.50 444.23 925.64
  C 452.16 924.95 461.13 922.74 467.21 921.70
  Q 472.63 920.78 477.72 919.86
  A 0.81 0.81 0.0 0 0 478.38 919.09
  L 479.32 894.57
  A 1.21 1.20 87.2 0 1 480.35 893.42
  C 496.42 891.14 501.94 879.00 501.93 864.24
  Q 501.92 843.77 501.81 820.01
  C 501.76 808.49 502.70 798.87 505.80 788.41
  Q 508.67 778.70 511.87 769.20
  C 513.95 763.02 512.90 756.88 512.84 750.62
  C 512.80 746.48 513.92 742.22 515.21 738.35
  Q 520.68 722.02 525.28 705.22
  Q 538.23 657.90 545.97 611.73
  Q 547.02 605.44 549.93 582.74
  A 0.30 0.30 0.0 0 1 550.26 582.48
  L 550.52 582.51
  Q 550.70 582.54 550.68 582.72
  Q 549.59 593.55 547.76 605.02
  C 540.39 651.18 530.21 695.61 515.84 740.03
  Q 514.76 743.39 514.21 747.25
  C 513.08 755.16 515.02 762.45 512.44 770.30
  C 509.64 778.82 505.92 788.33 504.52 796.56
  Q 502.82 806.48 502.87 818.60
  Q 502.95 836.48 503.11 854.46
  Q 503.19 863.47 502.25 871.17
  C 500.85 882.64 493.44 892.13 481.47 893.79
  A 1.41 1.41 0.0 0 0 480.25 895.16
  L 479.69 918.49
  A 0.82 0.82 0.0 0 0 480.56 919.33
  Q 485.68 919.03 491.18 919.49
  C 494.14 919.74 497.00 921.14 497.51 924.36
  A 0.75 0.75 0.0 0 0 498.43 924.98
  L 533.50 916.82
  Z
  M 558.14 926.18
  Q 562.11 927.99 559.16 924.78
  Q 556.54 921.92 552.61 921.38
  Q 547.92 920.74 542.51 920.60
  Q 541.76 920.58 542.35 921.05
  Q 543.15 921.68 544.21 921.88
  Q 551.91 923.34 558.14 926.18
  Z
  M 486.56 927.36
  C 483.89 926.17 481.79 924.82 479.49 923.20
  Q 479.32 923.08 479.11 923.10
  Q 478.97 923.11 478.86 923.20
  Q 478.52 923.50 478.87 923.78
  Q 483.04 927.20 486.60 931.13
  A 0.79 0.79 0.0 0 0 487.88 930.97
  Q 489.20 928.54 486.56 927.36
  Z
  M 470.97 932.23
  A 1.54 1.54 0.0 0 0 469.70 929.86
  Q 468.15 929.83 467.16 930.64
  A 1.65 1.64 -49.1 0 0 467.35 933.32
  Q 469.47 934.60 470.97 932.23
  Z
  M 543.33 938.20
  Q 542.32 939.78 543.96 940.71
  Q 545.20 941.41 546.91 941.09
  Q 547.33 941.02 547.61 940.69
  C 549.72 938.20 546.07 933.95 543.33 938.20
  Z
  M 480.7101 939.2377
  A 2.83 2.44 -38.0 0 0 476.9778 939.0573
  A 2.83 2.44 -38.0 0 0 476.2499 942.7223
  A 2.83 2.44 -38.0 0 0 479.9822 942.9027
  A 2.83 2.44 -38.0 0 0 480.7101 939.2377
  Z"
/>
<rect fill="#bf9362" x="-0.32" y="-23.69" transform="translate(459.76,635.64) rotate(5.8)" width="0.64" height="47.38" rx="0.26"/>
<path fill="#bf9362" d="
  M 454.62 695.65
  C 453.42 713.71 452.68 731.73 452.67 749.54
  Q 452.67 749.82 452.40 749.75
  L 452.12 749.69
  Q 452.08 749.68 452.08 749.64
  Q 451.67 722.59 453.90 695.55
  Q 453.92 695.27 454.18 695.35
  L 454.49 695.45
  Q 454.63 695.50 454.62 695.65
  Z"
/>
<rect fill="#bf9362" x="-0.40" y="-25.19" transform="translate(442.77,802.25) rotate(3.9)" width="0.80" height="50.38" rx="0.30"/>
<path fill="#bf9362" d="
  M 440.12 888.58
  C 440.58 889.61 441.29 890.20 442.10 890.93
  Q 442.76 891.53 441.88 891.40
  C 439.88 891.11 438.26 886.34 437.86 884.60
  Q 434.55 869.93 435.73 854.58
  Q 435.75 854.33 435.99 854.35
  L 436.25 854.37
  Q 436.42 854.38 436.41 854.55
  Q 435.81 867.03 437.42 878.79
  Q 438.16 884.19 440.12 888.58
  Z"
/>
<rect fill="#bf9362" x="-0.50" y="-13.13" transform="translate(442.32,909.51) rotate(0.5)" width="1.00" height="26.26" rx="0.30"/>
<path fill="#fcfcfc" d="
  M 558.14 926.18
  Q 551.91 923.34 544.21 921.88
  Q 543.15 921.68 542.35 921.05
  Q 541.76 920.58 542.51 920.60
  Q 547.92 920.74 552.61 921.38
  Q 556.54 921.92 559.16 924.78
  Q 562.11 927.99 558.14 926.18
  Z"
/>
<path fill="#503e36" d="
  M 479.49 923.20
  C 481.79 924.82 483.89 926.17 486.56 927.36
  Q 489.20 928.54 487.88 930.97
  A 0.79 0.79 0.0 0 1 486.60 931.13
  Q 483.04 927.20 478.87 923.78
  Q 478.52 923.50 478.86 923.20
  Q 478.97 923.11 479.11 923.10
  Q 479.32 923.08 479.49 923.20
  Z"
/>
<path fill="#503e36" d="
  M 470.97 932.23
  Q 469.47 934.60 467.35 933.32
  A 1.65 1.64 -49.1 0 1 467.16 930.64
  Q 468.15 929.83 469.70 929.86
  A 1.54 1.54 0.0 0 1 470.97 932.23
  Z"
/>
<path fill="#bf9362" d="
  M 543.33 938.20
  C 546.07 933.95 549.72 938.20 547.61 940.69
  Q 547.33 941.02 546.91 941.09
  Q 545.20 941.41 543.96 940.71
  Q 542.32 939.78 543.33 938.20
  Z"
/>
<ellipse fill="#e9e2df" cx="0.00" cy="0.00" transform="translate(478.48,940.98) rotate(-38.0)" rx="2.83" ry="2.44"/>
<path fill="#e9e2df" d="
  M 418.43 950.16
  L 418.54 953.38
  L 418.49 964.19
  Q 418.49 964.96 419.26 964.99
  C 432.10 965.51 445.68 965.41 458.18 965.87
  C 474.04 966.44 489.75 966.59 505.82 967.43
  Q 522.80 968.32 542.44 968.31
  Q 547.35 968.31 551.07 965.83
  Q 551.49 965.55 551.99 965.56
  Q 580.02 965.89 608.05 966.19
  Q 612.41 966.24 616.69 965.84
  Q 617.37 965.78 617.37 965.10
  L 617.34 952.60
  Q 619.13 949.75 618.10 947.34
  Q 621.70 946.79 623.37 946.83
  Q 652.56 947.56 681.75 948.10
  C 697.93 948.39 714.31 949.34 730.58 949.86
  Q 741.25 950.21 750.50 950.84
  C 767.24 952.00 783.15 953.10 798.70 955.69
  Q 801.86 956.22 804.71 957.41
  A 0.86 0.86 0.0 0 1 804.72 959.00
  Q 801.51 960.38 797.86 960.88
  Q 782.64 962.98 767.05 964.10
  Q 735.69 966.34 712.91 966.90
  C 701.57 967.19 690.78 967.87 679.95 968.16
  Q 621.99 969.71 594.53 969.81
  Q 529.92 970.05 442.34 969.26
  Q 432.60 969.17 422.37 968.68
  C 412.24 968.19 402.89 968.09 392.60 967.61
  Q 354.30 965.82 329.63 963.68
  Q 319.00 962.75 309.50 961.17
  Q 306.03 960.58 303.15 958.91
  A 0.69 0.68 46.5 0 1 303.18 957.71
  Q 305.62 956.45 308.50 955.97
  C 330.83 952.20 354.00 951.03 377.76 950.12
  Q 399.04 949.31 412.27 948.16
  Q 415.72 947.86 418.43 950.16
  Z"
/>
<path fill="#fcfcfc" d="
  M 617.34 952.60
  L 617.37 965.10
  Q 617.37 965.78 616.69 965.84
  Q 612.41 966.24 608.05 966.19
  Q 580.02 965.89 551.99 965.56
  Q 551.49 965.55 551.07 965.83
  Q 547.35 968.31 542.44 968.31
  Q 522.80 968.32 505.82 967.43
  C 489.75 966.59 474.04 966.44 458.18 965.87
  C 445.68 965.41 432.10 965.51 419.26 964.99
  Q 418.49 964.96 418.49 964.19
  L 418.54 953.38
  Q 452.07 954.81 477.13 956.38
  Q 505.69 958.17 533.18 954.02
  Q 538.15 953.26 546.20 953.82
  C 548.88 954.00 549.72 956.71 552.27 956.97
  Q 553.75 957.12 555.26 957.12
  C 567.32 957.13 579.11 954.93 591.00 953.21
  Q 602.48 951.54 617.34 952.60
  Z"
/>
</svg>
